<?xml version="1.0" encoding="UTF-8"?>
<svg id="Layer_1" xmlns="http://www.w3.org/2000/svg" version="1.1" viewBox="0 0 795 256">
  <!-- Generator: Adobe Illustrator 29.8.3, SVG Export Plug-In . SVG Version: 2.1.1 Build 3)  -->
  <defs>
    <style>
      .st0 {
        fill: #af875f;
      }

      .st1 {
        fill: #ce9f61;
      }

      .st2 {
        fill: #46433f;
      }
    </style>
  </defs>
  <rect class="st0" x="21.62" y="14.81" width="751.76" height="226.37" rx="14.35" ry="14.35"/>
  <rect class="st1" x="21.62" y="14.81" width="731.21" height="207.34" rx="11.57" ry="11.57"/>
  <g>
    <path class="st2" d="M483.34,245.56l-4.95-.35c.08.16,1.33.3,4.95.35Z"/>
    <path class="st2" d="M601.29,10.32c.39-.03.84-.06,1.18-.08-.83.03-1.1.05-1.18.08Z"/>
    <path class="st2" d="M290.61,233.8h.26c.42-.03.91-.06,1.28-.09l-1.55.09Z"/>
    <path class="st2" d="M543.56,234.74c-66.38-.42-83.99-2.05-152.78-1.39-32.82-.13-67.83.24-99.91.44-15.22,1.27-42.12.02-60.13,1.08l-6.98-.72c-6.21.36-13.49.61-19.73.22l.39-.21c-9.27.54-19.73.22-24.34.49l.39-.21-11.27.09,1.94-.3c-16.17.58-32.84.62-47.52.35l1.22.87c-31.4-.97-42.89.83-71.23-.32l.39-.21c-4.48.29-8.72.48-12.79.6-1.02.03-2.02.05-3.02.08-.5,0-.99.02-1.49.03h-.37s-.23,0-.23,0h-.46c-1.22-.08-2.39-.4-3.44-.93-2.12-1.06-3.69-2.99-4.37-5.1l-.14-.39-.08-.41c-.06-.27-.13-.54-.14-.81-.02-.27-.09-.54-.07-.82v-.41s-.01-.21-.01-.21v-.31c.06-1.79.1-3.58.15-5.36.41-14.3.83-28.73-.26-47.19.27,4.61.45-1.97.66-1.6-.25-17.01-.38-35.17-2.09-35.44.02-12.39.54-10.09,1.2-11.71-.75.07-1.06-10.7-1.11-20.37l.29,4.45-.25-27.73-1.41,5.44c.41-14.7,1.73-3.73,1.38-17.82l-1.17.18c.12-10.17.62-18.23,1.2-26.22.29-3.99.58-7.96.89-12.17l.05-.79.03-.4c.01-.11.03-.18.04-.27.07-.34.07-.68.19-1.01.09-.33.15-.67.3-.99l.17-.49.23-.47c.59-1.25,1.51-2.39,2.67-3.27,1.12-1.03,2.54-1.67,4-2,.38-.03.74-.14,1.13-.14l.57-.03c.21-.01.61,0,.91,0h3.86c5.16,0,10.33,0,15.52,0,10.38-.06,20.83-.12,31.29-.19,20.94-.22,41.97-.44,62.83-.65,41.72-.43,82.73-.66,120.79.37l3.36.88c1.46,1.29,21-1.9,23.9-.71l8.85-.59c2.49.23,7.73.48,3.32.77,8.19.05,8.39-.16,14.28-.55l8.79.8c32.31.62,59.77-.92,93.77-.61,40.84,1.63,117.7.13,161.99-.74,31.13-.96,64.79-.16,98.64.6,16.93.38,33.9.76,50.62.9,4.18.02,8.35.04,12.49.06,2.07,0,4.14,0,6.2-.01.49,0,1.13-.01,1.33.01.29.02.59,0,.88.07.29.04.58.06.86.15.28.06.57.13.83.24,2.18.75,4.1,2.46,5.04,4.61.23.54.42,1.09.55,1.67.03.29.15.57.15.87l.04.45.03.22v.37c.07,2.01.14,4.01.2,6-.18,2.07.23,7.44.38,7.4l-.18,58.33s-.12,70.71,1.09,114.56c.08,2.74.17,5.38.24,7.88.1,2.8.21,4.16-.25,5.79-.83,3.15-2.93,5.43-4.87,6.72-1.98,1.29-3.77,1.78-4.79,2.09-.48.19-.91.33-1.01.5-.1.17.06.34.53.52.21.08.48.16.84.23.36.09.79.14,1.3.15,1.03.06,2.38-.07,4.01-.59,1.62-.53,3.51-1.52,5.33-3.27,1.77-1.76,3.46-4.34,4.13-7.74.31-1.75.36-3.43.51-5.23.13-1.8.26-3.71.4-5.71.25-4.01.53-8.44.84-13.31.58-9.73,1.2-21.22,1.87-34.65l.28,1.44c.68-31.93.83-52.03-.58-74.04,1.73-3.48.18-26.23.74-33.7l.14.71c-.67-9.74-.39-19.77-.1-29.71.04-1.24.07-2.48.11-3.72l.03-.93c0-.36-.01-.82-.03-1.22,0-.84-.13-1.67-.24-2.5-.52-3.32-2-6.46-4.06-9.06-2.11-2.57-4.85-4.6-7.89-5.81-1.53-.57-3.11-1.02-4.72-1.17-.8-.12-1.6-.12-2.39-.13-.19,0-.42,0-.57,0l-.44.02-.88.05c.36-.07.65-.22,1.38-.36.49-.05,1.15-.09,2.06-.08.9.08,2.06.17,3.51.59-1.15-.32-2.35-.51-3.57-.64-.61-.02-1.23-.05-1.85-.07-.46,0-.93.01-1.4.02-1.82.03-3.68.06-5.53.08-3.69.05-7.35.09-10.6.09-6.51,0-11.44-.16-11.95-.66-32.67.26-78.27-.2-99.2,1.4l1.44-.28c-11.93,1.08-15.44.16-28.78.71-.73-.13-1.67-.2-1.52-.25-13,1.07-37.92.17-48.43.62l-.68-.67-25.88.16,9.67.14c-3.35,1.84-19.57-1.15-38.34.04-17.56-.23-35.62,3.82-53.86,2.92-8.7.86,7.66-1.4-5.34-.74-.43-.96,6.07-.6,2.72-1.36-12.77.45-20.94-.98-36.69-.33l-.64-.75c-20.54,1.36-38.76-.98-52.43.32-21.18.62-14.2-2.22-36.27-.76l-8.58-1.01c-9.44-.16-6.76,1.24-17.23.75.64-.64-13.23-.51-7.1-1.11-23.69-.99-48.09,1.41-79.29-.27-6.78,1.24-22.48.5-27.54,1.43-.84-.54-31.47-.09-13.84-1.26,1.52-.1,4.19-.08,4.01.13l2.11-.73c-17.79-1.38-32.33.76-49.94.55,5.22.24,12.16.18,7.52.68l-16.36-.1,3.4-.62-24.37-.36,3.36.76c-11.93-.39-16.12-1.69-29.57-.61-6.09.6,11.3,1.03-1.29,1.27-3.99-.13-8.47-.27-13.27-.43-2.4-.07-4.88-.15-7.41-.23-.63-.02-1.27-.04-1.91-.06l-.96-.03h-.48c-.14-.02-.43,0-.64,0-1.83,0-3.68.27-5.5.76-3.61,1.03-7.02,3.03-9.63,5.86-2.66,2.78-4.5,6.39-5.29,10.2-.17.96-.34,1.92-.38,2.89l-.04.73-.02.36v.26s-.03,1-.03,1c-.02,1.33-.05,2.65-.07,3.97-.04,2.63-.07,5.23-.11,7.77.86-1.9.83,3.57,1,9.21l-.75.65c1.04,21.6-1.64,7.92-.82,29.35l-.52-1.89,1.56,5.66c1.48,19.34-1.55,10.43.47,31.92-.13-8.49,1.65-4,1.32,6.46l-.72-2.65c.15,5.79.45,7.72.3,11.57-.39-3.45-1.05-1.82-.93,6.69l-.9-5.7,1.33,16.09c-.77,12.42.2,32.11-.82,37.21,0,0-.5,26.71.62,32.84-.69-5.37-.96,9.36-1.77,5.17.04.43.09.92.14,1.45.08.77.14,1.65.29,2.56.31,1.83.88,3.85,1.8,5.88,1.87,4.05,5.35,8.03,9.9,10.36,2.26,1.18,4.74,1.93,7.21,2.25.62.11,1.23.13,1.84.16l.91.04h.66c.83.01,1.65.02,2.44.03,3.18.05,5.99.16,8.03.37l-1.55.09c30.27.85,51.76-1.17,78.92-.13-1.24-.87,13.11-.39,9.56-1.5,28.1-1.1,51.23,2.25,61.38-1.17,12.78-.18,15.15.8,21.76.98l-3.05.18c23.95-.28,30.9-.31,48.69-.23,8.88-.33,10.28-1.92,26.19-1.54-5.15.63,1.36.52,7.31.52-3.8.1-4.98.33,2.83.76,1.1-.2,2.8-.32,4.39-.42.07.05.38.09.22.16,9.94-.22,8.21-.42,3.59-.51.23-.1-.16-.22-1.58-.4,10.31.82,28.74-.06,29.99,1.03,29.87-.25,51.23-1.37,76.09-1.8,2.79.56-3.02,1.05-10.23,1.27l17.64-.2c-.15.8-10.13.46-15.56.62,21,1.3,43.29-1.3,67.91-.11l5.11-.64,1.47.11c-.08-.34,5.45-.79,9.1-.9,3.48.7-.24,1.62,11.95,1.57,9.64.68,27.39-.34,40.01-.72-6.8-.12-4.61-.51-1.68-.75,6.1-.02,9.61.68,14.31.38l.59.95c-2.4-.89,15.92-.96,18.18-1.35,3.47.7-9.46.6-10.98,1.13,24.45-.09,12.22-.04,36.66-.13,13.04-.71-2.37-.89,3.87-1.72,11.51-.18,22.75-.84,35.96-.28l-4.18-.84c21.63-.65,34.57-.55,49.14.3,161.14-6.83,33.95-9.34,33.95-9.34-63.44-1.86-96.18.59-171.69,1.24Z"/>
  </g>
</svg>