<?xml version="1.0" encoding="UTF-8"?>
<svg id="Layer_1" xmlns="http://www.w3.org/2000/svg" version="1.1" viewBox="0 0 256 256">
  <!-- Generator: Adobe Illustrator 29.8.3, SVG Export Plug-In . SVG Version: 2.1.1 Build 3)  -->
  <defs>
    <style>
      .st0 {
        fill: #af875f;
      }

      .st1 {
        fill: #ce9f61;
      }

      .st2 {
        fill: #46433f;
      }
    </style>
  </defs>
  <rect class="st0" x="15.43" y="23.75" width="225.14" height="208.5" rx="14.35" ry="14.35"/>
  <rect class="st1" x="15.43" y="23.75" width="216.32" height="190.97" rx="11.57" ry="11.57"/>
  <g>
    <path class="st2" d="M105.82,236.62l-2.16-.35c.03.16.58.3,2.16.35Z"/>
    <path class="st2" d="M245.06,65.97c.03.17.04.36.08.51-.03-.36-.05-.48-.08-.51Z"/>
    <path class="st2" d="M26.2,223.71s.04.02.05.03c.1.02.2.06.28.07l-.33-.1Z"/>
    <path class="st2" d="M132.08,225.81c-28.95-.42-36.62-2.05-66.62-1.39-7.16-.07-14.55,0-21.9.1-3.68.06-7.34.12-10.97.17l-1.36.02h-.68c-.22.01-.5.02-.56.01-.22-.01-.44,0-.67-.01-.22-.04-.43-.06-.65-.08-.86-.15-1.68-.45-2.43-.9-.86-.17-1.8-.75-2.54-1.65-.76-.89-1.23-2.09-1.4-3.35-.07-.31-.06-.64-.08-.96,0-.09-.01-.14-.02-.27v-.45s0-.89,0-.89c0-1.19,0-2.37-.04-3.52-.05-2.31-.17-4.51-.44-6.48l.72-3.05c-.36-2.71-.61-5.88-.22-8.61l.21.17c-.54-4.04-.22-8.61-.49-10.61l.21.17-.09-4.91.3.84c-.58-7.05-.62-14.32-.35-20.72l-.87.53c.97-13.69-.83-18.7.32-31.06l.21.17c-2.3-15.62,1.56-24.7-.62-40.8.27,2.01.45-.86.66-.7-.25-7.42-.38-15.34-2.09-15.45.02-5.4.54-4.4,1.2-5.1-.75.03-1.06-4.66-1.11-8.88l.29,1.94-.25-12.09-1.41,2.37c.41-6.41,1.73-1.63,1.38-7.77l-1.17.08c.03-1.11.08-2.16.15-3.17.02-.25.04-.5.06-.75l.03-.37.05-.28c.08-.37.1-.73.22-1.08.38-1.38,1.04-2.54,1.89-3.48,1.69-1.88,3.92-2.99,6.43-3.39.31-.11.64-.14.95-.24.33-.03.65-.1.98-.12l.5-.02.25-.02h.4s1.68,0,1.68,0c2.25,0,4.51,0,6.77-.01,4.53-.03,9.08-.1,13.65-.19,9.13-.22,18.3-.44,27.4-.65,18.19-.43,36.08-.66,52.67.37l1.46.88c.64,1.29,9.16-1.9,10.42-.71l3.86-.59c1.08.23,3.37.48,1.45.77,3.57.05,3.66-.16,6.23-.55l3.83.8c14.09.62,26.07-.92,40.89-.61,4.45.41,9.89.62,15.83.7,2.97.04,6.08.04,9.25.02,1.84.02,3.69.5,5.23,1.65,1.54,1.11,2.77,2.74,3.31,4.59.08.23.15.46.19.7.04.24.13.47.14.71.02.24.05.48.08.73l.04,1.17c.06,1.58.12,3.14.17,4.67.26,6.14.51,11.85.71,16.68,1.92,27.15-3.2,58.72-1,86.51-.18.9.23,3.25.38,3.23l-.18,25.44s-.03,7.71.09,17.81c.06,5.05.16,10.7.32,16.28.09,2.7.17,5.37.25,7.96.05,1.79-.46,3.5-1.22,4.97-.77,1.48-1.86,2.66-2.95,3.56-1.1.9-2.22,1.52-3.17,1.98-.48.21-.91.41-1.27.59-.37.15-.67.31-.9.48-.46.33-.63.64-.21,1.01.36.32,1.21.76,2.75.92.76.05,1.7.06,2.8-.13.56-.08,1.13-.26,1.77-.43.6-.24,1.29-.45,1.95-.82,1.36-.67,2.82-1.67,4.17-3.12,1.36-1.44,2.63-3.35,3.47-5.73.23-.59.36-1.23.54-1.87.14-.64.23-1.34.34-2.01.15-1.16.3-2.36.46-3.62.3-2.52.62-5.23.97-8.16l.28.63c.68-13.92.83-22.69-.58-32.29,1.73-1.52.18-11.44.74-14.7l.14.31c-1.33-8.49,1.11-17.49-.09-25.68.14.32.61.49.64,2.38-.22-5.96-.6-14.12.4-14.57-.26-14.25.2-34.13-1.4-43.26l.28.63c-1.08-5.2-.16-6.73-.71-12.55.13-.32.2-.73.25-.66-1.07-5.67-.17-16.54-.62-21.12l.67-.3-.08-5.64c0-.41-.04-1.09-.07-1.69-.02-.61-.12-1.22-.22-1.82-.08-.61-.23-1.2-.39-1.79l-.25-.88-.32-.86c.32.86.5,1.76.7,2.64.12.9.29,1.8.28,2.71-.98-.86-.81-3.52-2.17-7.1-.68-1.77-1.75-3.73-3.42-5.46-1.65-1.72-3.91-3.17-6.49-3.84-1.14-.48-2.36-.77-3.59-.89-.62-.04-1.23-.11-1.85-.06l-.92.06-.45.04-.36.06c-1.94.33-3.89.79-5.85,1.22-3.92.87-7.88,1.66-11.85,1.21-3.79.86,3.34-1.4-2.33-.74-.19-.96,2.65-.6,1.19-1.36-5.57.45-9.13-.98-16-.33l-.28-.75c-8.96,1.36-16.9-.98-22.86.32-9.24.62-6.19-2.22-15.81-.76l-3.74-1.01c-4.12-.16-2.95,1.24-7.51.75.28-.64-5.77-.51-3.1-1.11-10.33-.99-20.97,1.41-34.57-.27-2.96,1.24-9.8.5-12.01,1.43-.37-.54-13.72-.09-6.03-1.26.66-.1,1.83-.08,1.75.13l.92-.73c-7.76-1.38-14.1.76-21.78.55,2.28.24,5.3.18,3.28.68l-7.13-.1,1.48-.62-10.63-.36,1.46.76c-5.2-.39-7.03-1.69-12.89-.61-2.65.6,4.93,1.03-.56,1.27-1.74-.13-3.69-.27-5.78-.43-1.05-.07-2.13-.15-3.23-.23l-.83-.06-.42-.03c-.14,0-.27-.02-.49-.02-.8.01-1.61-.04-2.42.06-3.26.27-6.59,1.35-9.45,3.19-2.85,1.84-5.23,4.37-6.85,7.21,1.37-.62-.53,2.31-1.11,5.75l-.83.24c-.09.85-.15,1.62-.2,2.31,0,.68-.01,1.29-.02,1.84,0,.41,0,.76,0,1.08,0,.3-.02.55-.05.78-.09.91-.3,1.34-.52,1.77-.44.85-.9,1.7-.49,6.37l-.52-.82,1.56,2.47c1.48,8.43-1.55,4.55.47,13.92-.13-3.7,1.65-1.75,1.32,2.82l-.72-1.16c.15,2.52.45,3.37.3,5.05-.39-1.5-1.05-.79-.93,2.92l-.9-2.49,1.33,7.02c-.77,5.42.2,14-.82,16.23,0,0-.5,11.65.62,14.32-.69-2.34-.96,4.08-1.77,2.25.78,3.02,1.42,11.93.59,15.5l-.09-.68c-.85,13.2,1.17,22.57.13,34.41.87-.54.39,5.72,1.5,4.17,1.1,12.25-2.25,22.34,1.17,26.77.18,5.57-.8,6.61-.98,9.49l-.18-1.33c.14,5.22.22,8.59.25,11.62,0,1.52.01,2.95.02,4.49,0,.77,0,1.56-.01,2.41.02.57.05,1.15.07,1.75.03.61.15,1.23.24,1.88.69,2.54,1.74,3.78,2.95,5.31.65.74,1.35,1.57,2.28,2.57.96.97,2.08,2.2,3.81,3.51-1.31-.58-1.26-.38-.51.24.73.63,2.26,1.5,3.79,2.15-.99-.38-1.65-.64-1.61-.47.06.13.77.81,2.87,1.74.68-.02,1.64.15,2.56.19.03.06.2.12.1.17,1.42.2,2.42.14,3.08.12.6-.04.78-.1.85-.14.08-.1-.49-.13-1.85-.26.14-.1-.08-.21-.84-.46.66.17,1.52.28,2.24.35.65.06,1.34.09,2.03.12,1.39.05,2.84.05,4.16.06,2.64.02,4.79.07,5.06.62,13.03-.25,22.34-1.37,33.18-1.8,1.22.56-1.32,1.05-4.46,1.27l7.69-.2c-.07.8-4.42.46-6.79.62,9.16,1.3,18.88-1.3,29.61-.11l2.23-.64.64.11c-.03-.34,2.38-.79,3.97-.9,1.52.7-.11,1.62,5.21,1.57,4.2.68,11.94-.34,17.45-.72-2.97-.12-2.01-.51-.73-.75,2.66-.02,4.19.68,6.24.38l.26.95c-1.05-.89,6.94-.96,7.93-1.35,1.51.7-4.12.6-4.79,1.13,10.66-.09,5.33-.04,15.99-.13,5.69-.71-1.03-.89,1.69-1.72,5.02-.18,9.92-.84,15.68-.28l-1.82-.84c9.43-.65,15.08-.55,21.43.3,70.27-6.83,14.81-9.34,14.81-9.34-27.66-1.86-41.94.59-74.87,1.24Z"/>
  </g>
</svg>