<?xml version="1.0" encoding="UTF-8"?>
<svg id="Layer_1" xmlns="http://www.w3.org/2000/svg" version="1.1" xmlns:xlink="http://www.w3.org/1999/xlink" viewBox="0 0 512 512">
  <!-- Generator: Adobe Illustrator 29.8.3, SVG Export Plug-In . SVG Version: 2.1.1 Build 3)  -->
  <defs>
    <style>
      .st0 {
        fill: #6a8ba5;
      }

      .st1 {
        fill: url(#linear-gradient2);
      }

      .st2 {
        fill: url(#linear-gradient10);
      }

      .st3 {
        fill: url(#linear-gradient1);
      }

      .st4 {
        fill: url(#linear-gradient9);
      }

      .st5 {
        fill: url(#linear-gradient8);
      }

      .st6 {
        fill: url(#linear-gradient11);
      }

      .st7 {
        fill: url(#linear-gradient12);
      }

      .st8 {
        fill: url(#linear-gradient7);
      }

      .st9 {
        fill: url(#linear-gradient4);
      }

      .st10 {
        fill: url(#linear-gradient5);
      }

      .st11 {
        fill: url(#linear-gradient3);
      }

      .st12 {
        fill: url(#linear-gradient6);
      }

      .st13 {
        fill: url(#linear-gradient13);
      }

      .st14 {
        fill: url(#linear-gradient);
      }
    </style>
    <linearGradient id="linear-gradient" x1="383.76" y1="531" x2="383.76" y2="-10" gradientTransform="translate(644.27 -123.26) rotate(90)" gradientUnits="userSpaceOnUse">
      <stop offset="0" stop-color="#6a8ba5"/>
      <stop offset="1" stop-color="#54748a"/>
    </linearGradient>
    <linearGradient id="linear-gradient1" x1="290.6" x2="290.6" y2="-10" gradientTransform="translate(551.1 -30.1) rotate(90)" xlink:href="#linear-gradient"/>
    <linearGradient id="linear-gradient2" x1="476.93" x2="476.93" gradientTransform="translate(737.43 -216.43) rotate(90)" xlink:href="#linear-gradient"/>
    <linearGradient id="linear-gradient3" x1="337.18" x2="337.18" gradientTransform="translate(597.68 -76.68) rotate(90)" xlink:href="#linear-gradient"/>
    <linearGradient id="linear-gradient4" x1="430.35" x2="430.35" gradientTransform="translate(690.85 -169.85) rotate(90)" xlink:href="#linear-gradient"/>
    <linearGradient id="linear-gradient5" x1="244.01" x2="244.01" y2="-10" gradientTransform="translate(504.52 16.49) rotate(90)" xlink:href="#linear-gradient"/>
    <linearGradient id="linear-gradient6" x1="523.51" x2="523.51" gradientTransform="translate(784.02 -263.01) rotate(90)" xlink:href="#linear-gradient"/>
    <linearGradient id="linear-gradient7" x1="197.43" x2="197.43" y2="-10" gradientTransform="translate(457.93 63.07) rotate(90)" xlink:href="#linear-gradient"/>
    <linearGradient id="linear-gradient8" x1="570.1" x2="570.1" gradientTransform="translate(830.6 -309.6) rotate(90)" xlink:href="#linear-gradient"/>
    <linearGradient id="linear-gradient9" x1="150.85" x2="150.85" gradientTransform="translate(411.35 109.65) rotate(90)" xlink:href="#linear-gradient"/>
    <linearGradient id="linear-gradient10" x1="104.26" x2="104.26" gradientTransform="translate(364.77 156.24) rotate(90)" xlink:href="#linear-gradient"/>
    <linearGradient id="linear-gradient11" x1="-35.04" y1="531" x2="-35.04" y2="-10" gradientTransform="translate(225.46 295.54) rotate(90)" xlink:href="#linear-gradient"/>
    <linearGradient id="linear-gradient12" x1="11.54" y1="531" x2="11.54" y2="-10" gradientTransform="translate(272.04 248.96) rotate(90)" xlink:href="#linear-gradient"/>
    <linearGradient id="linear-gradient13" x1="58.12" y1="531" x2="58.12" y2="-10" gradientTransform="translate(318.62 202.38) rotate(90)" xlink:href="#linear-gradient"/>
  </defs>
  <rect class="st0" x="0" y="0" width="511.97" height="512"/>
  <rect class="st14" x="113.27" y="248.97" width="541" height="23.06" transform="translate(60.58 593.2) rotate(-80)"/>
  <rect class="st3" x="20.1" y="248.97" width="541" height="23.06" transform="translate(-16.41 501.45) rotate(-80)"/>
  <rect class="st1" x="206.43" y="248.97" width="541" height="23.06" transform="translate(137.57 684.95) rotate(-80)"/>
  <rect class="st11" x="66.68" y="248.97" width="541" height="23.06" transform="translate(22.09 547.32) rotate(-80)"/>
  <rect class="st9" x="159.85" y="248.97" width="541" height="23.06" transform="translate(99.07 639.08) rotate(-80)"/>
  <rect class="st10" x="-26.48" y="248.97" width="541" height="23.06" transform="translate(-54.9 455.57) rotate(-80)"/>
  <rect class="st12" x="253.02" y="248.97" width="541" height="23.06" transform="translate(176.06 730.83) rotate(-80)"/>
  <rect class="st8" x="-73.07" y="248.97" width="541" height="23.06" transform="translate(-93.4 409.7) rotate(-80)"/>
  <rect class="st5" x="299.6" y="248.97" width="541" height="23.06" transform="translate(214.56 776.7) rotate(-80)"/>
  <rect class="st4" x="-119.65" y="248.97" width="541" height="23.06" transform="translate(-131.89 363.82) rotate(-80)"/>
  <rect class="st2" x="-166.23" y="248.97" width="541" height="23.06" transform="translate(-170.38 317.95) rotate(-80)"/>
  <rect class="st6" x="-305.54" y="248.97" width="541" height="23.06" transform="translate(-285.5 180.75) rotate(-80)"/>
  <rect class="st7" x="-258.96" y="248.97" width="541" height="23.06" transform="translate(-247.01 226.63) rotate(-80)"/>
  <rect class="st13" x="-212.38" y="248.97" width="541" height="23.06" transform="translate(-208.51 272.5) rotate(-80)"/>
</svg>