<?xml version="1.0" encoding="UTF-8"?>
<svg xmlns="http://www.w3.org/2000/svg" baseProfile="tiny" version="1.2" viewBox="0 0 7000 7000">
  <!-- Generator: Adobe Illustrator 28.7.3, SVG Export Plug-In . SVG Version: 1.2.0 Build 164)  -->
  <g>
    <g id="Layer_1">
      <path d="M1894.9,6662.6c-44.6,1.8-89.5-5.1-133.4,3.2-33-6-64.6,12-97,6.8-36.9-4.3-74.6,0-111.8-.7-42.4,6.3-83.2-19.9-124.2-11.4-52.4,17.2-108.5,8.9-162.2,18.3-114.3,15.1-232.1,15.6-346.4.7-62.7-10.7-122.3-32.5-172.9-72.1-22.8-15.7-53-13.7-74.9-31.6-27.6-19.8-52.7-42.9-79.3-64-31.3-29.6-78.9-41.9-98.1-82.9-10.6-22-25.2-40.5-42.7-57.2-40.4-35.6-48.5-88.7-73.1-133.7-21.9-35.6-17.2-80.2-29.8-119.2-8.9-53.1-37.9-102.2-32.1-157.3-1.6-54.8,12.3-108.5,7.3-163.5.6-51.3,12.7-101.6,12.2-153.2-1-47.5-28-90.7-23.7-139.1,1.5-19.5-13.5-37-5.7-56.6,10.7-64.1,26.9-128,26.4-193.5,1.1-152.1-62.9-169-21.2-356.6,17-94.3-2.1-188.5-6.9-282.7,9.3-70,24.3-138.7,18.8-210.2.2-20.7-5-40.9-8.5-61.2-7-27.4,12.5-51.2,9.9-78.4-1.6-69.2,15.6-137.9,10.7-206.9-15.4-84.3-23.5-170.1-16.6-256,11.2-68.4,4.6-136.5,6.5-205.3,8-84.7-6.4-171.8,10.6-255.2,6.2-20.6,9.3-41.6,7.6-63.2,3.9-77.1,18.1-153.4,12.3-231.1-3-62.8-8.8-127.2,2-189.4,8.6-49.9-8.2-100.7.6-151.3,6.8-79.9-11.9-159.2-14.1-239.1-6.4-81.3-3-162-8.6-242.9-.6-68.7,4.8-137.1,1.1-205.4,2.6-82.3,10.9-165.4,4.4-247.4-2.7-25.7.2-52.1-7.3-77.3-5.4-45.5,6.8-91.6-.8-137.4-8.8-47.9,22.7-93.3,10-139.8-10.6-26.7-10.5-54.9-11.1-82.8-.2-56.2-15.4-110.7-15.5-166.9.3-106.1-9.8-215.1,26-316.8,6-47.5,41.9-80.6,62.3-121.7,9.3-25,13.3-52.1,32.2-72.2,31.2-40.7,68-77.3,93.6-122,10.6-19,25.5-34.1,44.8-44.5,42.9-21.9,75.9-67.4,124.7-88.5,22.2-9,46.4-12.7,66.2-27.2,36.5-22.3,83-17.5,123.1-30.7,42.5-7.2,81.8-29.5,125.4-31.9,62.2-4.3,123.3,11.7,185.5,7.2,68.8-2.1,140.8,25.8,208.2,4.1,46.4-15.4,97.4-18.5,144.8-21.6,101.3,16.9,205.1,47,305.5,13.7,105.3-40,212.8-7.9,320.2-.9,72.6,4.8,142.9-13.5,215.2-12.8,33.7-.5,64.9,13.3,98.5,14.8,57.9,4.7,116,4.8,173.1-5.8,24.5-4.4,46.3,11.8,70.6,10.7,49.8,2.1,99.8,3.2,149.2,9.5,43.3,11.4,85.5-9.1,128.8-8.5,67.7-11.6,136.6-9.6,205.2-6.6,126.8,13.4,255.5,4.5,383.2,8.3,41.1-2.3,79.2,19.4,120.4,15.3,85.6,4.9,170.8,20.2,257.1,11.2,71.6-6.4,142.2,4,213,5.5,48.8-9.3,98.2.5,147.6-.5,83.1-1.8,165.5-18.4,249.1-16.7,35.4,2.4,70.4-9.9,105.4-4.9,27.2,6.6,54.1-1.5,81.4-2.5,115.4,1.5,229.7,2.6,345.1,6.8,95,7.5,187.8-14.3,282.5-7.1,45.1-2.4,91-6,134.5,9,31.6,11.7,62.2-10.4,94-9.9,90-3.1,178.5-19.7,268.8-18.6,110.1-1,231.5-.4,326.7,60.8,40.6,35.9,98.9,35.6,136.6,75.8,49.7,50.5,126.5,74.7,157.4,140.7,29.5,42.6,74.9,76,87,129.7,4.1,15.6,10.1,30.2,19.2,43.7,21.4,30.1,14,68.4,26.7,101.6,5.3,48.5,30.3,92.5,35,141-.4,110.6-8.7,220.5-18,330.7-2,24.9.1,49.1,8.9,72.8,16,36.6,9.1,76.2,18.7,113.6,4.4,10,3.9,21.2.7,31.5-9,29.6-7.7,60.7-15.4,90.5-12,58.3-15.9,119.8-7.4,178.6,17.2,51.7,30.9,105.2,32.2,160-5,79.6-25.3,158-20.3,238.4-2.3,61.5,17.6,121.4,11.9,183.1-7.9,43.4-19,85.7-17.2,130.3.6,35.2-3.3,71,5.5,105.5,3.8,18.1,6.9,37.5-.4,55.1-12.1,42.9-8.4,88.3-11.7,132.6,2,37.5-14.2,73.6-6.5,111.2,13.2,71.5,20.5,143.2,18.8,216.1.1,57.5-12.5,114-8,171.4-4.6,112,5.5,226.6-12,337-12.4,36.7-1.8,75.6-10.2,113-8.4,58-13.3,117-8.3,175.4,8.1,80.8-3,161.4-3.5,240.9,8.4,72.3-8.3,145.3,4.7,217.4,9.2,95.8,17.2,192.9,15.4,288.8-2.6,64.6,10.1,130.3-.7,195.3,4.7,94.8-3.7,190-3.6,285.2-5.7,55.1,13.3,109.9,10.2,164.6-4.6,43,.9,86.5-.2,129.7,2.5,34.4-20.4,66.4-11.8,100.1,4.5,18.7,11.6,36.9,11.8,56.5,7.6,163.4,39,331.8-1.6,492.9-9.2,53.1-37.2,97.4-66.9,141.2-12.6,25.8-13.8,56-34.7,77.7-16.7,20.8-33.5,41.4-50.6,61.9-32.9,32.8-45.7,84.5-89.3,105.7-22,10.6-40.5,25.2-57.2,42.7-35.5,40.5-88.8,48.4-133.7,73.1-38.2,22.1-85.5,18.3-127.2,31.2-79.5,29.2-163.4,37.8-247.3,23.7-78.2,5.3-155-13.9-233.1-11.5-48.6,10.9-96.5,23.9-146.7,26-28.8,11-57.3-7.2-86.6-6.6-228.2-57-247.7,31.5-427.7,13.5-63.1-10.4-126.6-18.8-190.7-16.4-62-1.3-122.8,18.4-185.1,11.8-64.5-16.5-130-18.5-196.4-16.1-32.3,1.4-64.8,16.4-96.5,2.7-11.9-4.9-24.4-6.5-37.2-6.1-48.4-2.2-97.4-1.8-145.1-9.4-39.8-10.9-79.1,7.4-118.6,8.9-58.9,6.5-117.5,11-177.2,8.1-159.2-18.5-322.2,2.4-480.6-18.2-52.6-11.4-107.3-5.6-160.5-16.9-124.3-8-249,4.8-372.7-6.2-60.7,8.6-122.6-3.7-183.7,1.3-87.1,12.2-175.2,14.2-262.9,18.5-32.5,7.7-65.1-4.6-97.5.1-24.9,5.7-50.2,5-75.6,4.1-99.2-2-197.7-4-297.2-7ZM6402.1,1075.1c-3.3-27.5,4.5-71.6-12.1-100.2-14.2-26.4-27.7-53.1-37.6-81.6-52.8-126.8-169.8-218.4-293.9-270.4-36.4-20.2-77.4-15.1-117-19.9-43-.5-83-23.1-125.8-18.6-126.3-2.1-252.6-19.3-378.1,5.3-91.1,16.8-183.2,12-274.4,1.4-25.3,2.8-50.3-9.5-75.4-2-39.7,10.2-81.1,5.2-120.9,13.9-51.6,17.4-104.8,15.5-158.1,15.2-102,19.4-204.6-4.4-306.9,9.8-41.8,5.9-81.2-12.5-123-10-31.3,1.6-62.7.3-93.9-.6-38.3-2.8-78-.2-114.3-14.9-17.1-6.2-35.7,1.5-53.4.1-125.2-9-246.7,40.4-370.6,25.2-91-12.5-183.8,11-274.6-11.2-94.6,2-190.9,9-285.7-7.9-87.1-13-173.8-26.6-262.1-21.4-56.2,2.1-109.8-20.5-166.5-9-37.4,8.3-69.6-17.7-105.4-15.5-66.6,8.9-133.2,20.7-200.5,21.6-49.3.9-98.7-2.3-147.9.3-57.7,10.2-114.7,26-173.8,22.9-62.1,1.8-123.1-14.3-185.1-12.6-50.8-1.5-102.1,25.7-152.1,10.6-18.6-7.4-39.8-6.7-57-17.3-29.1-16.4-64.1-10.4-95.7-6.9-93.1,26-188.7,33.4-285.1,29.8-29.6-.8-56.8,13.8-86.8,11.6-95.8-5.1-197.3-37.6-290.7-6.6-169.1,65.4-291,169.7-356.8,342.6-20.6,57.8-7.3,122.4-28.3,180.8-10.4,67.8-7.5,138.2-9.5,207-10,74.5-1.5,148.3,9.7,222.4,6.4,51.4,14.1,103.2,12.4,155.2-.9,43.4-12.1,85.9-10.2,129.3-7.6,70.5,5.1,143.8,18,213.6,12.8,39.7,8.8,80.1,7.3,120.8,6.2,55.6,16.5,111.1,7.3,167-1.2,57.4.1,114.5,4.3,171.8-12.9,80.3-8.6,161.6-13.2,242.8-.9,21.3-3.7,42.6-11.6,62.6-7.7,38.9,3.7,79.4-.8,119.2.4,85.6,30.2,168.1,26.5,253.1,7.5,28-4.1,55.3-5.5,83.1-3.4,51.4,6.2,102.5,3.7,153.8-1.3,46.4-17.9,92.8-9.5,138.9,6.4,36.5-.6,74.1,1.8,111.3-3.8,134.1-41.5,264.6-31.9,399.3,1.3,24.2-3.9,47.7-10.1,70.9-5.2,30.3.2,61.1.6,91.6,2.4,26-4.2,51.9-14.2,75.8-5.1,46.1,12.5,95,13.9,142.2,15.4,94.3-7,191.5,16.8,284.5,35.8,124.7-18.1,252.4,9.1,377.3,9.2,36.1,6.7,70.7-5.1,105.8-5.9,28.7-24.7,51.3-20.9,82-2.5,40.9,13,80,20,119.8,22.2,81.3,5.6,166.5,18.4,248.3,19.8,86.9-20.2,175.7-12.3,264-5.2,57.8,29.9,103.9,49.2,155.7,25.8,72.1,82.3,128,138.3,178.1,44.3,46.7,105.9,68.3,162.3,96.2,31.9,15.5,67.4,13.1,101.8,15.7,57.4,6.2,111.5,24.5,169.6,19.7,77.6,3.2,155.9,9.5,233.3,9.3,74.7-8.9,149.1-21.4,224.2-25.9,62-5.7,123.5,10.9,184.9,10.7,17.1,3.2,34.2,5.3,51.5,1.1,51.5-11.3,105.3-5.6,155.9-22.2,41.1-13.1,83.4-3.1,125.2-7.2,37.6-5,75.5-9.4,113.3-10.2,84.3,15.9,169.3-7,253,4.4,69.3,14,141,1.1,211.2,10.2,19.2,1.3,38.5,3.4,56.6,11.2,23.9,5.7,49.1-.6,73.6.8,111.6,4.4,220-34.1,331-28.9,65.8,15.2,132.8,1.5,199.1,2.7,122.3,22.4,244.5-3.1,367.3,17.1,63.6,10.3,127.8,20.6,191.9,24.7,52.4,1,105.8-7.9,156.9,7,57.8,13.5,120.2-12.9,175.4,15.3,117.7-6.7,237.8-29.3,357.9-20.2,59.7-3.6,117.4-25.7,177.8-24.3,102.2,5.5,202.7,24.1,304-.7,43.1-4,85.2,16.4,124.5,30.5,56.5,6.5,110.6-11.5,165.3-22.6,63.7-13,128.8-9.1,193.4-10,113.6-26.9,226.5,18.7,341.7,5.7,41.9-5,74.8-37,115.6-47.8,99.2-40.7,181.1-126.7,234.3-218.1,23.9-50.9,55.6-100.6,54-158.9-3.7-54.9,22.3-105.6,20.6-159.9,3.6-76.3,1.8-153.2,10.4-229.3.5-79-21.9-157.1-24.6-236.2-10-72,5.8-143.3,8.6-215,9.3-38.5-8.9-76.3-7-115.1.2-36.9-11.4-72.2-18.5-108.1-9.7-32.4.7-64.6-1.9-97.4-14.8-76.3-7.8-152-6.5-229,2.1-49.3-12.3-98.5-.4-147.4,12.1-40.3,3.7-82.1,4.8-123.2,5.5-47.5-1.3-96.8,16.1-142.4,6.7-27.4-2.4-55.5,1.1-83.5,4.8-115.2-42.1-228.3-25.7-342.7,12.9-64.5-7.1-130.6,1.7-195.3,17.6-96.1-.4-191.5,9.4-288.3,2.9-83.6,26.8-166,29.6-249.5-3.2-62-3.1-124.2,11-184.6,3.1-45.4-10.5-93.5,6.5-136.8,7.2-17.3,8.2-33.8,5.1-52.3-9.9-66.5-19.8-133.3-20.3-200.6,12-145.4-44.3-286-13.2-431.3,13.4-106.9-39.1-188.1,18-291.4,11.6-98.7-41.1-192.5-32.1-292.5.8-44.8,1.7-89.2-9.1-133-4.2-72.9,17.3-135.6,17.4-212.7Z"/>
    </g>
  </g>
</svg>