<?xml version="1.0" encoding="UTF-8"?>
<svg xmlns="http://www.w3.org/2000/svg" version="1.1" viewBox="0 0 919.1 276.9">
  <defs>
    <style>
      .cls-1 {
        fill: #394693;
      }

      .cls-2 {
        fill: #6b1d10;
      }

      .cls-3 {
        fill: #e9624a;
      }

      .cls-4 {
        fill: #d17c41;
      }

      .cls-5 {
        fill: #c6db62;
      }

      .cls-6 {
        fill: #231f20;
      }

      .cls-7 {
        fill: #631f23;
      }

      .cls-8 {
        fill: #6363ad;
      }

      .cls-9 {
        fill: #efe15f;
      }

      .cls-10 {
        fill: #6273b3;
      }

      .cls-11 {
        fill: #ead672;
      }
    </style>
  </defs>
  <!-- Generator: Adobe Illustrator 28.7.1, SVG Export Plug-In . SVG Version: 1.2.0 Build 142)  -->
  <g>
    <g id="Layer_1">
      <g id="Layer_4">
        <path class="cls-7" d="M141.8,246.6c-.9-2.7-1.9-5.4-2.5-8.3-.4-2.1-1.9-3.2-3.5-3.4-.9-2.1-1.8-4.1-2.7-6.1-1.3-2.9-4.4-3.2-6.9-2.1-1.6-2.4-3.3-4.9-4.9-7.3-.1-.4-.3-.8-.6-1.2-1.3-2.1-2.7-4-4.1-5.9-.4-.6-.8-1-1.2-1.3,0-.1-.2-.2-.3-.3-2.2-3-4.4-6-6.6-9,.1-1.3,0-2.6-.5-4-.8-2.3-1.9-4.5-3.1-6.6,1.2-4.3-3.3-8.8-5.8-11.9-1.1-1.4-2.6-3.4-4.4-5.1-.5-1-.9-2-1.4-3,2-1,3.9-2.2,5.7-3.7.1-.1.2-.2.4-.3,2.2,1.6,5.1,2.1,8,.3,1.6-1,2.9-2.2,3.9-3.6,2-2,4.1-4.1,6.1-6.1,3.4-3.3,2.6-7.8-.3-10.6,0-.1.1-.3.2-.4.6-1.6,1-3.3,1.2-5,2.8-1.6,4.8-4.7,3.9-8.4-1.6-6.5-4.3-12.9-8.1-18.4-2.7-3.8-5.8-6.9-9.1-9.9-1.5-1.6-3.1-3.1-4.8-4.5-1.7-1.7-3.6-2.4-5.5-2.3-1.1-.9-2.2-1.8-3.4-2.7-14.4-10.5-34.3-9.4-48.1,1.6-1.9,1.5-3.8,3.3-5.6,5.2-3.3.6-6.2,2.4-8,5.6-1.5,2.7-1.8,6-1.4,9.1,0,.1-.1.3-.2.4-2.7,7.7-2.4,16.8-1.8,24.9.2,2.2.3,4.4.6,6.6.2,1.4.5,2.7.9,4-.2.7-.3,1.5-.3,2.4,0,1,0,1.9.1,2.9-.7,1-1.1,2.3-.9,3.8l1.6,13.8c0,.4.1.8.2,1.1-.6,1.1-.9,2.4-.8,3.8.2,4.3.5,8.6.8,12.9-2.4,2.2-3.8,5.5-2.6,9.7.6,2.9,1.5,5.9,2.3,8.8-.7,4.4-.9,8.8-.6,13.1-.7,1.3-1.7,2.9-2.8,4.1-2.8.5-5.6,1.2-8.4,2.1-6.6,2-7.2,12.2,0,14,6.9,1.7,13.5.9,18.9-2.4,1.7,1.5,3.7,2.7,6,3.6,7.4,2.8,15.5,1.2,22.9-.8,7.2-1.9,6.7-11.9,0-14.1-3.7-1.2-7.4-2.1-11.2-2.7-.7-7.5-.4-15-.8-22.6-.1-2-.1-4.2-.1-6.4.1-.6.2-1.2.2-1.9,0-1.1,0-2.1-.2-3.2,0-2.2,0-4.4-.3-6.5,0-.5,0-.9,0-1.4,0-.3,0-.5,0-.8,2.9-1.1,5.4-3.3,6.4-6.4.6,0,1.2-.1,1.8-.2.5.9,1.2,1.8,2.2,2.5,3,1.9,6.1,3.9,9.2,5.8.3,1.3,1,2.5,2.1,3.6,3.6,3.6,7.2,7.2,10.8,10.7,4.2,12.3,10.2,23.8,18.1,34.1,3.8,5,7.9,10,13.6,13,6.5,3.5,13.1,2.2,20,3.5,3.3.6,7-2.1,5.8-5.8h0ZM74.3,156.3c-1,1.6-2.4,2.6-4.1,2.8-.9,0-1.8-.2-2.7-.2-.3,0-.5,0-.8,0-.6-.2-1.2-.5-1.8-.8-4-2.4-6-7.3-6.7-11.8-1-6.2,0-12.8.7-19,.6-5.5.8-10.8.4-16.2.3-.2.6-.3,1-.5.9,1.3,2.3,2.3,4.4,2.7,8.3,1.6,15.6,6,20.8,12.5,1.6,6.2,1.8,9.6,2.2,16.9,0,.3,0,.6,0,.9-2.9,2.4-5.2,5.7-6.8,9.4-2.6-.1-5.4,1.1-6.7,3.4h0Z"/>
        <path class="cls-8" d="M275.3,228.2c-1.1-.2-2.3-.2-3.4,0-8.2-10.5-11.8-25.4-15.9-37.2-3.8-11-7.6-22-11.4-33-3.4-9.7-6.1-19.8-10.9-29-9.2-17.8-30.2-31.4-50-21.1-4.9,2.6-8.9,7.2-10.6,12.5-1.2,1.6-2.3,3.3-3.4,5.1-5.2,8.5-7.4,17.3-8.5,26.9-3.2,7.1-6.5,14.2-9.7,21.3-3.8,8.4-8.5,16.8-11.6,25.5-1.4,3.9-1.5,8.1-2.7,12.1,0,0,0,0,0,.1-6.2,3.3-5.9,10.7-1.3,13.9,1,6.8,4,13.2,4.6,20,.3,3.3,2.7,6.7,6.5,6.5,3.8-.2,7.6-.5,11.5-.7,5.9-.4,7.9-6.3,5.1-10.4.8-.8,1.2-2,.9-3.2-.3-.9-.7-1.5-1.5-2-1-.6-2.4-.6-3.3,0-.2.2-.5.3-.8.5-4.2-5.1-3.3-11.3-.5-17.4,5.4-5,9.8-11.4,13.1-17.2,2.8-4.9,5.9-9.4,11.2-11.7,1.3,0,2.6-.2,3.9-.6,1.2.9,2.6,1.5,4.1,1.6,5.7.2,11.6,2,17.2,3.1,4.2.8,8.5,2,12.8,1.2.2.3.4.6.6.8,3,4.4,5.6,9.3,10.4,12,.6.4,1.2.5,1.8.6.9,2.1,1.8,4.2,2.6,6.4,1.8,4.7,4.5,9.3,5.9,14.1,0,0,.1.5.2,1-8-1.1-15.3,8.4-8.3,15.8,3.4,3.6,7.7,5,12,4.8,4.7.4,9.6-.4,13.9-2.4,2.1,5.8,9.8,7.9,14,3.5,4.9,2.5,10-.4,11.8-5.2,2.9-7.6-2.3-16.8-10.3-18.2h0ZM212.3,172.4c-.4.2-.7.5-1,.8-5.9-1.7-12-2.1-18-.6-1.2-.6-2.4-1.2-3.6-1.8-2.4-1.4-5.2-1.2-7.3,0,0-.4,0-.9,0-1.3.4-3.7,1.8-7.2,3.8-10.4,3-4.9,8.2-7.7,12-11.8,2.6.5,4.9,1.6,7,3.1,1.9,3.4,3.7,6.8,5.5,10.2,1.7,3.3,3.3,6.6,4.9,9.9-1.1.6-2.2,1.3-3.3,1.9h0Z"/>
        <path class="cls-11" d="M390,153.7c-.3-1.9-.6-3.7-.9-5.6-.1-.8-.5-1.4-1-2,.1-4.4,1.6-9.1,1.3-13.2-.6-6.1-3.9-11.2-9-14.5-5.1-3.3-11.3-5-17.4-5.1-6.6,0-12.5,2-18.7,3.8-4.4-.4-8.8-.7-13.2-.8-11.5-.4-23-.6-34.5-.9,0,0-.1,0-.2,0-3.3-.2-6.8-.3-10.3-.2-10.9-.2-21.7-.5-32.6-.8-1.6-2.6-4.1-4.4-7.8-4.4-7.6,0-13.6,11-5.8,15.5,1.5.9,3.5,1.3,5.6,1.5.2,1,.5,2,.7,3,.8,3.5,1.6,6.9,2.4,10.4,1.6,7.3,3.3,14.5,5,21.8,1,4.5,6.7,4.6,9.1,1.7.5,0,.9-.1,1.3-.3,3,1.2,6.9-2.2,5.2-6.1-.4-.9-.8-1.9-1.2-2.8-.7-1.6-2.2-2.2-3.8-2.1.3-3,.7-6,1-9.1.1-.9-.1-1.7-.5-2.3,11.5-.2,23.4,1.8,34.8,2.8,4.1.4,8.2.7,12.4,1.1-4.4,7.7-6.3,17.3-7.1,25.8-.5,5.5,1.1,11.3,1.3,16.9.1,6,1.5,11.8,1.2,17.8-.5,11.8-2.7,23.3-4.9,34.8-1.4,7.3,5.7,11.1,10.8,8.7,2.9,2.3,7,1.8,8.9-1.2,1,.4,1.9,1,2.8,1.9,4.6,4.4,12.1,1.2,12.4-5.1.2-4.5.3-9,.5-13.5.6-1,.9-2.2.8-3.8-.4-5.4-.8-10.8-1.2-16.2,0-.4,0-.7-.2-1.1-.1-5.9-.3-11.8-.1-17.6,0-1.7-.6-3.1-1.5-4.1.4-3,.7-6,1.1-9,.1-1.1,0-2.1-.4-2.9.2-3.3.5-6.6,1-9.8.4-2.4-.5-4.4-1.9-5.6,0-.4,0-.9.1-1.3,1.3-4.1,2.6-8.5,2.5-12.4.3,0,.6,0,.9,0,2,.2,3.9-.8,5.2-2.2,2.8.5,5.8.7,8.5.9,5.7.4,11.5.6,17.2.1,0,2.1-.5,4.3-.7,5.7-.8,5.2,4.1,10.3,9.4,7.2,1.2-.7,2.4-1.5,3.6-2.2,0,0,0,.1,0,.2,0,0,0,0,0,0,2.4,4.1,9,1.8,8.1-3.4h0Z"/>
        <path class="cls-1" d="M374.7,95.6c-1.8-1.4-4.5-1.1-5.9.7-4.1-1.4-8.7-1.6-12.4,1.1-4.1,3-5.4,8.5-3.2,13,.6,1.2,2.2,2.1,3.6,2,.8,0,1.6-.2,2.3-.6.5.2,1.1.4,1.8.5.7,0,1.5,0,2.2,0,1.3.1,2.4.5,3.6,1.2,5,3,9.5-3.8,6.1-7.5.6-.9,1-1.8,1.4-2.9,0,0,0,0,0,0,.4-.3.7-.6.9-.9.8-.9,1.2-1.8,1.3-3.1,0-1.3-.7-2.6-1.7-3.4h0Z"/>
        <path class="cls-1" d="M416.2,239.1c6-10.6,6.9-23.6,1.1-34.7-1.2-2.4-3.8-2.9-6.1-2.4-.4,0-.7,0-1.1,0-1.8,0-3.3.5-4.5,1.4-2.7-.4-5.6,1.4-6,5-.2,1.8-.4,3.6-.6,5.4-1.4,3.5-2,7.3-1.4,11.1-1.2-.2-2.4-.4-3.4-.7-4.6-1.2-9.2-2.5-13.8-3.7-.8-10.6-2.4-21.3-3.5-31.9-1.3-12.2-2.5-24.5-4.2-36.7-.5-3.9-5.6-5.6-9.1-4.1-1.6-.5-3.4,0-4.5,1.7-7.3,12.4-10.1,27.8-10.9,42.1-.8,14.2.9,28.7,5.2,42.2-1.6,3.3-3.4,6.4-5.6,9.5-1.6,2.4.5,5.7,3.3,5.7,2,0,3.9-.2,5.8-.3.5,3.4,5,3.8,5.9.8,4.6,4.4,10.4,7.4,16.8,8.5,8.5,1.5,16.7-.6,23.7-5.1,1.7.7,3.4,1.1,5.2.8,1.5-.3,2.8-.9,3.7-1.8,1,0,1.9-.6,2.3-1.6,1-2.4,2-4.7,3.6-6.9,1.4-1.9,0-3.9-1.8-4.4h0Z"/>
        <path class="cls-4" d="M487.4,216.9c.8-1.6,1.4-3.3,1.8-5.1.8-3.5-2.2-8.3-7.1-7-8.9,2.4-17.7,4.8-26.6,7.3-2.2-5.3-3.9-10.6-4.8-16.2-1.1-7.2.2-13.9,3.6-19.5,1.2,0,2.4.1,3.5.1,5.5,0,11.2-.9,15.4-4.2,4.5-3.5,6.2-8.9,4.9-13.7,2.9-4.1-1.8-10.7-8.3-10-6.1.7-11.7,2.5-16.6,5.1-.5-.1-1-.2-1.5-.2l-6.9-.6c-1.6-.1-3,.1-4.2.7.2-1.7.4-3.4.5-5.1.1-2.5-1.5-4.2-3.6-5,.3-1.8.9-3.3,1.8-4.6,11.1-2.2,22.2-4.8,33.4-6.3,5.2-.7,7.4-6.1,5.6-9.9,3.3-3.5,2.5-8.8-1.2-11.6-.9-2.6-5.4-3.9-7.8-1.6-4.8.8-9.7,1.8-14.6,2.2-5.2.4-10.5,0-15.5,1.2-1.2.3-2.4.7-3.6,1.1-2.5-.5-4.9-1.1-7.4-2-4.8-1.7-9.8,1-11.5,4.8-3,6.4-3,13.3-.3,19.7.7,6.2,1.4,12.4,2.2,18.7.3,2.1,1.4,3.6,2.9,4.5,0,.2,0,.4.1.6.9,5.8,1.8,11.7,2.7,17.5-.7,5.2.2,10.7,2.9,16,1,2.1,2.6,3.3,4.4,3.9.4,3.3,1.1,6.5,2,9.7,1.2,4.1,2.8,8.2,4.6,12.2,0,0-.2.1-.2.2-1.8,1.5-3.2,3.5-3.2,5.8,0,2.2.6,4.5,2.5,6.1l3.4,3.1c.4.4.9.8,1.4,1.1,1,3.3,4.4,6,9,4.9,3.2-.8,5.6-2.1,7.2-3.8.5,0,1,0,1.5-.1,4.1-.6,7.9-1.9,11.5-3.7l17-5.6c5.6-1.8,3.9-9-.7-10.7h0Z"/>
        <path class="cls-3" d="M596.2,173.6c-5.8-1.3-11.8-2.4-17.7-2.4-4.8,0-10.5,0-15.2,1.4-8.7,2.6-12.2,14-4.8,20.2,1.8,1.5,4,1.8,5.9,1.3,0,.6.2,1.3.2,2,.1,2.9-.3,5.8-1.1,8.7-1.5,5.3-4.9,10-9.6,12.9-7.5,4.8-25.2,6.1-26.6-6.1-.4-3.6-3.2-5.2-5.8-4.9-.9-3.4-1.5-6.7-1.9-10.3-.4-4.5-.9-9-1.3-13.5-.4-4.5-.4-12-2.7-17.2.6-2.6.9-5.2,1.3-7.5.8-2,1.6-4,2.4-6.1,0,0,.2-.2.3-.3,0,0,0,0,0,.1,2.2-1.9,3.9-4.5,5.5-7.1,3.6-3.4,7.3-6.8,10.8-10.3,1.2-1.2,2-2.5,2.4-3.8.8-.1,1.5-.2,2.3-.2,7.2-.5,14.7,1,21,4.4,1.4.7,2.7,1.5,4.1,2.3-.3,2.8,2,6.1,5.7,5.4,3.8-.7,7.5-1.1,11.3,0,1.6.4,3.8-.3,4.5-1.9,3-6.1,4.6-12.6,1.1-19-1.6-2.9-4.2-4.5-7-6-4-2.1-8-4.1-12-6.2-2.2-1.1-4.2-1.3-5.9-.8,0,0,0,0,0,0-7.5-4-15.8-4.2-24.1-2.8-8.8,1.4-17.7,5.5-24,11.7-5.4,5.2-11.3,12.7-13.8,20.3-1.3,1.5-2.6,3-4,4.5-2.1,2.4-2.5,5-1.8,7.4-.5,1.1-.6,2.2-.6,3.3-1.7,4.9-3.3,9.7-5,14.6-.6,1.8-.5,3.4,0,4.9,0,2.4,1,4.4,2.5,5.8-.7,12.8,1.7,25.7,7.9,37,0,.6.2,1.2.5,1.9,1,2.4,2,4.7,3.1,7.1,1.4,3,5.2,3.2,7.7,1.7,5.2,5.5,11.9,9.1,19,10.7,2.6,6.7,10.6,8.9,17.8,6.6,4.6-1.5,8.5-4.6,12.3-7.4.2-.2.5-.3.7-.5,5-1.6,9.6-4.5,13.5-8.9,1.9,0,3.7-.9,4.8-2.8,1.8-3.1,3.5-6.1,5.3-9.1,1.9-3.2,0-6.5-2.6-7.7.4-1.2.8-2.4,1.1-3.5,1-2.9-.5-5.1-2.7-6.2.4-1.7.8-3.4,1.3-5.2,4.7-1,9.4-1.8,14.1-2.8,2.6-.5,3.7-3.3,3.3-5.7,2.2-3.4,1.5-8.5-3.4-9.6h0Z"/>
        <path class="cls-9" d="M654.7,229.7c0-7.7-7.2-12.5-14.5-11-3.8.8-7.5,1.5-11.3,2.3-1.2.2-2.3.4-3.4.6,1-7.8.9-15.8.7-23.7,1.8-.6,3.3-2,3.2-4.2-.6-14.3-1.3-28.6-1.6-43,.2-.6.3-1.3.2-2,1.9-.4,3.6-1.9,3.8-4.6.2-3.4.3-6.7.5-10.1,0-1.2-.3-2.3-.9-3.1,0-1.3,0-2.7.1-4,8.7-.1,17.8-5.3,15.4-15.6-.9-3.9-3.5-7.6-7.1-9.5-3.7-2-9.9-1.3-13.9-.6-5,.8-10,1.1-15,1.7-5.5.8-11.2.2-16.6,1.3-4,.8-2.5,6.1.9,6.5,1.5.2,2.8.4,4.2.3,0,.1,0,.3,0,.4-1.5.3-3,.7-4.5,1.4-3.1,1.3-3.7,5.8-2.2,8.4,1.8,3.2,5.4,3.5,8.5,2.2,3-1.3,6.5,1.2,6.8,4.3.3,2.5,1.5,4.1,3,4.9.2,2,.5,3.9.9,5.8,0,1.5.8,2.4,1.8,2.7,0,.3-.1.6-.1,1-.4,5.9-1,11.8-1.5,17.8-.2,1.9.5,3.3,1.5,4.2v6.8c0,.1,0,.3,0,.4-.9.8-1.6,2-1.7,3.6,0,1-.2,2.1-.3,3.1-2.2,0-4.4,1.4-4.3,4.4.2,8.9.5,17.7.8,26.5,0,.3,0,.5,0,.8,0,.5,0,1,.1,1.4v5c.2.5.2,1,.3,1.4-2.1.4-4,1.6-5.6,3.2-1.1,1.1-1.9,2.4-2.4,3.7-2.1-.4-4.2-.1-6.3.6-.7.2-1.4.4-2.1.6,0,0,.2.1.2.2-9.5,3.1-11.3,16.8-.2,20.4,4.2,1.4,8.2.8,12.5.6,4.1-.2,8.3-.4,12.1-2,.8-.3,1.6-.7,2.3-1.1,1.3.3,2.7.5,4,.5,7.8.3,15.9-2,23.5-3.6,0,0,0-.1,0-.2,4.8-1.3,8.5-5.3,8.5-10.8h0Z"/>
        <path class="cls-2" d="M734.8,128.9c-6.8-14.9-20.9-24.4-37.4-23.9-17.5.6-34.2,11-41.8,26.8-2,4.1-3.5,8.5-4.3,13.1-2.9,1.8-5.2,4.6-6.5,8.1-4.2,10.9-5.1,22.3-3.5,33.8.9,6.4,4.3,18.3,10.9,22.5,1.9,3.8,5.5,9.1,9.5,9.8.1,0,.2,0,.3,0,3.5,5,8,9.3,13.7,12.3,14.5,7.7,31.2,4.1,43.1-6.6,12.4-11.2,17.2-28,20-43.8,3.2-17.8,3.6-35.3-4-52.1h0ZM713,199.3c-.2.5-.4.9-.5,1.4-2.9-1.1-6.2-.8-8.8,1.6-4.4,4.1-10,4.8-15,1.1-5.7-4.2-8.2-11.4-8.7-18.3-1.3-16.1,3.7-31.7,14.7-43.7.5-.6.9-1.1,1.1-1.7,6.4-.1,13.2,3.5,13.4,10.6.2,4.9,3.5,7.8,7.3,8.6,0,1.6,0,3.3.1,4.8.6,12.3.8,24-3.5,35.7h0Z"/>
        <path class="cls-10" d="M887.3,99.9c-7.6-2-15.3-3-23.1-3.5-3.7-.2-7.4-.2-11,0-4,.3-7.9,1.4-12,1.4-1.5,0-2.5.7-3.3,1.7-2.4.9-4.4,3.1-4.4,6.1s.4,7.6,1.9,11.2c-2.5,3.5-1.6,10.1,3.5,10.7,2.8.3,5.5.8,8.3,1.2.1,0,.2,0,.3,0,.2,1.6.4,3.1.5,4.6.9,10.1,1.9,20.2,2.5,30.3.6,10.1.8,20.2,1,30.3,0,1.7,0,3.4,0,5.1-3.2-5.8-5.5-11.8-8.4-18-3.8-8-8.7-15.2-14.6-21.9.1-1.7-.2-3.4-1-5-8.8-18.1-23.4-32.1-36.2-47.2-.5-.6-1.1-.9-1.7-1.1-1.5-1.7-3.7-2.8-6.2-2.7-14,.6-27.8.6-41.8-.1h-.4c-1.1-.6-2.5-.7-3.6.2-.7.5-1.2.9-1.5,1.7-.6,1.2-.7,2.7.1,3.8,0,0,0,0,0,0-.5.4-.9.9-1.4,1.4-3.9,4.6-2.3,12.2,4,13.7,6.5,1.5,11.9.9,13.1,8.5.8,4.8.6,9.9,1.3,14.7.6,4.3.3-1.4,2.7,2.1,0,.1.2,10.2.2,10.4-.4,4.3-.9,8.6-1.3,12.9-.2,1.5.4,2.7,1.2,3.6-.4,3.5-.8,7.1-1.1,10.6,0,1,0,1.9.5,2.7-.2.6-.3,1.2-.3,1.9.1,5.3.3,10.6.4,15.9,0,.9.3,1.6.7,2.2,0,.1,0,.2,0,.3.5,4.7,1,9.4,1.6,14.2,0,.5.2,1,.3,1.4,0,.4.1.9.2,1.3l-6-1c-11-1.9-15.3,14.6-4.2,17.1,6.8,1.6,13.8,1.8,20.7.9,2.3,0,4.6.2,6.8.3,1.2,0,2.2-.2,3.1-.7,2,1.5,4.6,2.3,7.1,2.3,5.4,0,9.4-3.7,12.5-7.7,2.3-3,2-7.1-.4-9.3-.5-1.9-1.9-3.5-4.3-3.9-3.3-.7-6.7-1.1-9.9-.3.2-11.3-.2-22.7-.1-33.9,0-7.2.3-14.3.9-21.5.2-2.9.2-6,.7-8.9,0-.3,0-.6.2-.9,1.5,1.4,3.2,2.8,5,4,1.5,1,3.2,1,4.8.5,1.5,1.7,3,3.4,4.2,5.3,2.2,3.5,4.2,7,6.4,10.5,4.5,7.3,9.5,14.2,14.2,21.4,6.3,9.9,12.6,21.9,21.9,29.6-1,2.9-.1,6.6,2.9,8.4,4.9,2.9,10.5,2.3,14.7-.8,2.7-.1,5.2,0,8-.6,4.2-.9,5.5-6.4,3.2-9.6,0-.3,0-.6,0-1-.2-10.4-.9-20.9-.2-31.3.7-9.8,1-19.6,1.4-29.4,0-2.2.2-4.3.3-6.5,1.9-.8,3.4-2.6,3.6-5.6.6-8.6,1.2-18.3,0-27.3,4.2.6,8.5-.5,11.5-4.1,1.7-2,2.5-4.1,2.5-6.2,5.4-3.6,5.8-14.2-2.5-16.3h0Z"/>
      </g>
      <g id="Layer_2">
        <path class="cls-6" d="M60.2,108.3c-1.6-.4-3.8.5-4.1,2.3-2.2,13.8-2.6,28-3.7,41.9,0,.2,0,.4,0,.6,0,.4,0,.8,0,1.2-.2,2.5,1.7,3.7,3.7,3.6,11.5,8.7,28.9,1.1,32.2-12.9,4.5-19.2-11.4-32.2-28-36.7h0ZM81.3,139.6c-.2,5.7-3,11.1-8.4,13.3-4.3,1.8-9.1,1.4-12.7-1.4.9-11.8,2.3-23.8,2.5-35.7,10.2,3.7,19.1,12.3,18.7,23.8h0Z"/>
        <path class="cls-6" d="M215.1,158.4c-.3-2.9,0-7.2-1.7-9.7-2.9-4.2-10.3-4.8-14.8-3.9-12.3,2.3-18.4,15-17.4,26.6.2,2.6,4.1,3.5,4.8.6,0-.3.1-.6.2-1,4.5,1.7,9.6,2.4,14.3,2.8,2.7.2,5.4.7,7.7,0,2.1,3,7.7,1.5,7.8-2.6,0-4.2-.6-8.6-1-12.8h0ZM200.6,164.8c-4.3.2-9,.6-13.2,1.9,1.2-4,3-7.8,6.2-10.4,3.5-2.9,7.9-3.9,11.9-2.1.3,3.4.5,6.9,1,10.4-1.9-.1-3.9,0-5.9.2h0Z"/>
        <path class="cls-6" d="M425.5,199.7c-.1-3.6-3.2-5.6-6.6-5-7,1.3-14.1,2.5-21,4.1-1.8.4-3.2,2.3-3.1,4.1.2,4.6,0,9.8.4,14.7-4.2,0-8.8-.3-13.2,0,.9-4,.5-8.6.5-12.6,0-5-.2-10-.3-15-.1-5-.2-10-.4-15-.1-3.5-.6-7-1.1-10.5,5,.2,10,.7,14.5,2.3,4.2,1.5,7.6-2.4,8-6.1.8-7.3-1.1-15-2-22.2-1-7.4-2-14.8-3-22.2-.5-3.9-2.8-6.9-7.1-7.1-4.8-.2-9.5-.4-14.3-.6,1.8-4.4,2.1-9.6,2.8-14.3.4-2.1-1.3-4.5-3.7-3.7-7.5,2.6-15.6-4.8-22.6,1.1-4.5,3.8-5.5,10.8-2.9,15.9-13.4-.5-26.7-1-40-1.6-13.3-.5-26.6-.9-39.8-1.2-6.6-.2-13.3,0-19.9.1-6.1,0-12.3.3-17.9,2.8-.6-.5-1.2-1.1-1.9-1.5-16.4-12.3-37.5-9.1-56-4.2-5.6,1.5-7.1,3-8.6,8.6-1.5,5.5-3,11-4.7,16.4-3.2,10.3-6.6,20.5-10.1,30.6-3.9,11.4-8.1,22.6-12.4,33.8-2.8,7.2-5.7,14.5-8.2,21.9-1,2.2-1.8,4.6-3,6.6-1.7-2.1-4.1-6.9-4.6-7.9-1.6-3.1-3-6.3-5-9.1-.7-1.4-1.3-2.7-2-4.1-2.3-4.8-4.8-9.5-7.1-14.2-1.6-3.1-2.9-6.8-5.1-9.6,7.5-3.4,14.1-10.3,18-16.4,7.1-11,8.6-24.9,4.7-37.3-8.6-27.7-37.6-41.2-65.1-36.9-7.7,1.2-15.2,4.3-21.8,8.3-5.6,3.4-9.9,7.1-13.6,11.9-1.6.3-3.1,1.6-3.1,3.7-.6,39.3-.7,78.7-2.1,118-6.2.1-13.5.2-15.8,6.6-2.1,5.8.7,12,5.9,14.9,7.2,4,17.3,2.4,25.2,2.3,10.4,0,20.9-.2,31.3-.2,2.1,0,3.3-1.6,3.5-3.5.6-4.8,1.2-9.6,1.8-14.5.2-1.3-1.2-3.1-2.5-3.3-5.4-.8-10.8-1.6-16.2-2.4.9-14.1,2.4-28.6,1.8-42.8,3.6,1.1,7.3,1.9,11.1,2.6,11.4,20.2,23.3,40.3,35.9,59.8,1.1,3.5,3.6,6.8,5.7,9.3,1.3,1.5,2.8,2.5,4.3,3.1.9.9,2.1,1.5,3.3,1.4,16.3-1,32.5-1.8,48.8-2.4,2.7-.1,4.4-2,4.6-4.6.6-6.6,1.2-13.1,1.8-19.7.2-2.8-2.4-4.5-4.7-4.7-3.3-.4-6.5-.8-9.8-1.2,4.6-4.8,8.7-10,12.8-15.3,3.5-4.5,7.7-9.1,10.9-14.1,4.8.5,9.6.5,14.2.7,5.8.3,14.3,2.1,20.3,0,.9,1.8,2,3.4,3.2,5.1,2.8,3.9,5.5,7.8,8.3,11.7,1.9,2.6,4,6.2,6.5,9.4-.6-.1-1.2-.2-1.8-.3-2.7-.5-6,.7-6.6,3.7-2.4,11.9-1.4,26.5,13.2,29.1,7.2,1.3,14.9.4,22.1.3,8.4-.2,16.7-.3,25-.5,1.7,0,3.8-.9,4.6-2.6,3.9-8.8,5.1-17.8,3-27.2-.5-2.2-2.6-3.4-4.7-3.6-3-.2-6.1-.5-9.1-.7l-16.3-47.4c1.1-.3,2.1-.6,2.9-1,6.4-3,10.7-9.8,10.4-16.9,0-1.9-2-8.2-1-9.2.5-.4,4.8,0,5.4,0,2.5,0,5,.2,7.5,0,1.6,0,7,0,11.1-1-1,7.1-.6,14.5-1,21.5-.4,8.9-.6,17.9-.8,26.9-.1,8.6-.3,17.2-.4,25.9-.1,8.3-1.1,17.5,1.4,25.5.5,1.5,1.7,2,2.8,1.7.2.6.6,1,1.2,1.4,10.8,6.2,26.1,5.7,37.8,2.3,4.3-1.3,3.8-6.6.6-8.2,1.7-6.6,1.5-13.9,1.8-20.6.5-8.9.9-17.8,1.3-26.7s.9-17.8,1.3-26.7c.2-4.6.5-9.2.7-13.8,0-1.4.2-2.8.2-4.1.7,0,1.3,0,2,0-.2,2.7-.2,5.4-.4,8-.3,4.6-.4,9.2-.6,13.8-.3,8.5-.6,17.1-.9,25.6-.6,16.5-.1,32.9.3,49.3-.2.2-.4.3-.6.5-1.9,1.7-1.7,4.9,0,6.7,4.2,4.3,11.4,3.1,17,3.3,6.2.2,12.4.4,18.6.5,6.2.1,12.4.2,18.6.3,4.7,0,9.6.1,14.1-1.3,9.6-3.1,11.9-11.9,11.9-21,0-12.9,0-25.9-.5-38.8h0ZM360.4,95.8c4.4-.2,8.3,1.5,12.5,1.6-.9,3.7-1.7,7.6-1.4,11.2,0,0,0,0,0,.1-6.4-.2-12.8-.5-19.2-.7,1.6-4.9,1.6-11.8,8-12.2ZM118.7,248.7c-1.9-.4-2.5-1.2-3.8-2.7-1.3-1.5-2.8-3.1-4.5-4.3-7.8-13.3-16.1-26.3-24.1-39.4-4.1-6.7-8.1-13.9-12.9-20.2-2.1-2.7-3.3-2.7-6.8-3-4-.4-7.9-.8-12-.7-1.1-.6-2.6-.4-2.9,1.1,0,.1,0,.3,0,.4-.1.2-.2.5-.2.7,0,0,0,.1,0,.2-3,15.9-3,32.7-4,48.8,0,1.3,1.1,3,2.4,3.2,5.3.8,10.6,1.7,15.8,2.5-.4,2.7-.7,5.4-1.1,8.1-12-.2-24.1-.6-36.1-.8-4,0-12.7,1-14.9-3.5-1.1-2.1-.4-2.6,1.3-3.2,2.9-1,7-.8,10-1.2,2.1-.3,4-1.6,4-4,0-40.6,1.4-81.2,2.3-121.8,0-.9-.2-1.7-.7-2.3,10.6-6.8,22.1-12,34.9-13.3,15-1.5,30.9,2.7,41.6,13.8,9.6,9.9,14.6,24.6,10.5,38-1.9,6.1-5.4,11.5-10.1,15.8-5,4.5-11,6-16.9,8.9-4.2,2.1-1.6,7.5,2.1,7.9,1.5.2,3.1.2,4.6,0,.7,5.3,4.4,10.8,6.5,15.3,2.6,5.6,5.2,11.2,7.8,16.7.9,3.3,2.3,6.5,3.5,9.6,1.6,4.1,4.3,9.7,8.8,11.3,0,0,.1,0,.1,0,2.9,1.8,6.7,1.7,10.2,1.2,1.3,5.9,2,12.4,4.1,18-4.9.2-9.7.4-14.6.6-1.6-.7-3.2-1.4-5-1.7h0ZM264.1,228.1c1.9,6.1,8.8,6.6,12.7,3.7,2.2.5,4.4.8,6.6,1.2.2,4.7-.3,9.3-1.9,13.8-11,.1-22,.3-33,.4-3.8,0-9.8.9-12.6-2.4-1.9-2.2-2-5.6-1.6-8.8,2,.2,3.9.3,5.9,0,1.8-.3,2.9-1.8,3.2-3.4,0,0,0,0,.1,0,1.4.2,3.3-1.2,3.5-2.7.6-4-.6-6.4-3-9.5-2.9-3.8-5.9-7.6-8.9-11.3-2.8-3.5-5.7-6.9-8.5-10.3-2.6-3.2-5-6.6-9.2-7.8-.3,0-.6-.1-.9,0-5.9-3.2-14.5-2.1-20.9-2.3-4.3-.1-8.8-.5-13.3-.5-.6-.2-1.3-.3-1.9,0-3.4.1-6.7.5-9.8,1.5-3.3,1-2.9,5.2,0,6.4.4.2.8.3,1.3.5-2.9,3.7-5.6,7.8-8.2,11.4-4.6,6.3-9.1,12.5-12.9,19.3-5.6.7-6.3,9.3.3,9.8,3.4.3,6.9.6,10.3.9-.3,3.7-.6,7.4-.9,11.1-5.2.3-10.4.5-15.7.8-.3-7.5-3.8-15.2-5.1-22.4-.3-1.5-1.9-2.5-3.3-2.5-.5,0-1.1,0-1.7,0,2.1-3.4,3.5-7.4,3.8-10.4,7.1-13.7,12.4-28.8,17.8-42.9,7.3-19,14-38.2,20.5-57.6,12.3-2.6,25.5-5.1,37.6-1,12.7,4.3,17.5,15.7,21.3,27.5,9.6,29.2,18.7,58.6,28.1,87.9h0ZM336.4,144.8c-.9.9-1.2,2.3-.8,3.5-1.4,2.5-1,5.6-1,8.7,0,4.6,0,9.2,0,13.8,0,8.6,0,17.1,0,25.7,0,8.6,0,17.1,0,25.7,0,7.3-.9,15.5.8,22.8-5,1.1-10.1,1.7-15.2,1.7s-10.9-1.2-16.4-1.6c2.2-7,2.1-14.9,2.7-22.1l1.8-25.9c.6-8.6,1.2-17.2,1.6-25.9.4-8.4,1.8-17.6.8-25.9-.5-4.3-5.7-6.9-8.9-5-3.7-2.4-11-2.6-14.1-2.9-6.7-.7-16.3-2.8-21.5,2.7-5,5.3-2.6,11.5-1.8,17.7.4,3.3-1,6.5-4.6,7.2-.3,0-.6,0-.9.1l-2.1-6.1c-3.4-9.9-6.5-20.1-10.4-29.8-2.1-5.3-4.5-10.3-7.8-14.8,3.6,1,7.4,1.4,11.1,1.8,6.6.6,13.3,1.3,19.9,1.8,13.6.9,27.2,1.6,40.8,2.2,24.8,1.1,49.6,2.2,74.4,3.3.7,5.5,1.4,10.9,2.1,16.4.7,5.4,1,11.2,2,16.6-3.3.5-6.7.6-10.1.7-1.4-1.4-3.8-1.4-5,0-.4,0-.9,0-1.3,0-.1-2.2-.2-4.4-.7-6.5.4-.3.8-.5,1.2-.8,1.5-1.3,1.6-4.4,0-5.6-5.2-4.1-12.2-3.1-18.5-2.9-5.5.1-14-.6-18.1,3.6h0ZM415.1,245.2c-1.2,4.3-5.2,4.9-9.2,4.9-9.8.1-19.7-1.1-29.5-1.6-5.5-.3-11.1-.5-16.6-.7-2.4-.1-4.7-.4-6.9-.3,1.6-15.7,3.3-31.4,4-47.2.4-8.5.8-17.1,1.1-25.6.2-4.6.4-9.2.5-13.8,0-2.6.3-5.3.2-7.9,2.2,0,4.5,0,6.6-.2,0,2.7.2,5.5.2,8,0,2,1.6,3.5,3.6,3.6,1.1,0,2.2.1,3.4.1-.3,3.6-.6,7.1-.5,10.7.2,5.3.4,10.6.6,15.9.2,5.3.2,10.7.7,15.9.4,4,.3,8.1,1.5,11.9-.6.2-1.1.4-1.7.6-2,.8-1.9,4.2,0,5.1,7,3.2,16.1,2.4,23.6,2.6,3.6,0,5.1-3.2,4.5-6,1.1-4.6,1.2-9.7,1.5-14.4,4-.4,8.1-.8,12.1-1.3,0,8.7.2,17.5.4,26.2,0,4.3.8,9.3-.3,13.4h0Z"/>
        <path class="cls-6" d="M497.3,218.7c-.5-4.6-3.6-9.8-1.5-14.2,2.5-5.3-6.2-8.2-9.7-4.1-1.5-.2-2.9.1-5.1.2-3.8.2-7.3.6-11,1.6-3.3.9-7.5,1.6-11,2.9-.1-2.9-.7-5.8-.9-8.6-.5-4.7-.9-9.3-1.5-14,9.9.1,20.1-1.2,26.1-8.9,2.9-3.8,3.6-8.4,2.7-12.9-1.1-5.4-5.9-9.6-4.9-15,.3-1.5-1.5-3.2-3.2-3.2-11.6.4-23.3,1.6-34.5,4.5,1.1-2.2,1.3-4.8,1.4-7.3,13.2.9,29-1.2,39-8.5,1-.8,1-2,.4-3,0-.1,0-.3,0-.4.2-7.7-1-15.6-2.2-23.2-.3-1.6-2.6-3-4.4-2.5-5.7,1.4-12.1,1-18,1.6-5.6.5-11.2,1.3-16.7,1.9-8.7,1.1-18.4,1.4-27.1,3.4-.5-.8-1-1.5-1.8-2.2-2.2-2.1-6-1.9-7.8.4-3.6,4.6-1.8,10.5-1.2,15.7.7,5.9,1.5,11.8,2.5,17.7,1.9,12.1,4.5,24.1,7.7,36,6.1,22.9,13.5,46.1,24.9,67.5-1.1,3,2.4,6.9,6.8,5.3,8.3-2.9,16.7-5.7,24.8-8.9,6.7-2.6,15.2-4.7,20.8-8.9,4.5-3.3,5.8-7.9,5.3-12.9h0ZM482.7,225.2c-6.2,3.1-13.3,5.2-19.7,7.8-6.1,2.4-12,5.1-18,7.6-6.3-22-13.4-43.7-18.1-66-2.4-11.4-4.5-22.8-6.4-34.3-.9-5.6-1.7-11.2-2.4-16.8-.2-1.4-.2-2.9-.4-4.4,8.6-.6,17.5-2.8,25.8-4.1,5.1-.8,10.3-1.5,15.4-2.5,5.1-.9,10.3-2.8,15.5-3.6.6,6.5,1.2,13.1,3,19.4h0c-5.1,1.6-10,3.5-15.3,4.5-6.9,1.3-13.8,1.4-20.9,1-1.8-.1-3.4,1.1-3.5,2.7-.3,4.1-1.6,8.8.8,12.5-3.9,3.4-1.4,10.2,5.4,9.2,10.3-1.5,20.3-4.4,29.8-8,0,1.8.2,3.6.3,5.4.2,3.6,2.5,7.3,1.3,10.9-3,8.5-17,7.1-24.6,6.3-3.9-.4-6,2.8-5.6,5.7.8,6.6,2.2,13.2,3.4,19.7,1,5.6,1.5,11.6,5.5,16.2,1,1.2,3,.6,3.6-.6,5.4.6,12-2.2,16.7-3.8,2.7-.9,6.7-2.2,9.8-4-.2,2.3.1,4.6.6,7,.9,4.5,3.4,9.3-2.1,12h0Z"/>
        <path class="cls-6" d="M605.8,168.9c-.3-1.9-2.3-2.9-4-3.1-13.5-.8-27.4-.2-40.8.9-.8,0-1.5.4-2.1.8-4.8-.2-9.2,4.1-9.9,8.9-.7,4.9.8,12.1,4.5,16-.1,0-.2,0-.3.1-.3.1-.3.6,0,.8,1.7,1.6,4.3,1.9,6.5,2.4,2.6.6,5.4,1.4,8.1,1.3,1.7,0,1.8-2.2.4-2.8-2.5-1-5.4-1.2-8.1-1.6-.5,0-1-.1-1.5-.2-.1-3.8-3-6.9-3.2-10.8-.1-4.1,2.6-6.1,5.7-7.8,12.4.9,25.2,1.3,37.7.6,1,3.7,1.7,7.8-.4,11-2.9,4.6-9,2.5-13.4,3.9-.7.2-1.1.7-1.3,1.3-3.1-.7-6.7,1.6-5.5,5.5,5.7,17.7-6.9,36.1-24.2,40.4-19.5,4.9-39-5.7-49.8-21.7-22.1-32.6-14.4-85.5,25.7-100.1,10.1-3.7,20.8-3.9,31.2-1.7,5.2,1.1,10,2.9,14.7,5.2,4.2,2.1,7.9,4.8,11.9,7.2-1,1.8-1.1,4.2-1.2,6.4-.2,2.3-.1,4.6,0,6.8-5.4-.2-11.1.6-16.2,1.9,0-1,0-1.9,0-2.9.8-.3,1.3-1.3,1.1-2.1-.4-1.5-.7-2.6-1.4-3.6-.2-1.1-1-1.7-1.8-1.9-.2-.2-.5-.3-.7-.4-2.7-1.5-5.8-2.3-8.8-2.7-6-.8-12.1,0-17.6,2.4-12.2,5.1-19.8,16.6-24.1,28.6-4.7,13.3-7,29.4-1.8,42.9,4.3,11.4,14.3,21,26.8,22.2,6.7.6,13.3-2.1,18.2-6.5,4.5-4.1,8.7-11.1,6.1-17.2-.8-1.9-4.1-3.2-5.2-.7-2.4,5.5-4,10.6-9.9,13.4-5.2,2.5-11.1,2.1-16-.7-12.1-6.8-14.9-21.3-13.6-34.1,1.3-12.6,5.5-26.5,15.1-35.2,4.4-4.1,10.2-6.6,16.2-7.1,3.1-.2,6.2.1,9.1,1.2,1.1.4,2.2,1.2,3.3,1.5,0,1.5-.1,3.1-.1,4.6,0,1.4.9,2.2,2,2.5.2,1.2.9,2.2,2.3,2.5,6.6,1.2,14.6,2,21.2.4,2.9-.7,3.9-4.5,2.5-6.8.6-2.5,1-5,1.3-7.6.3-3.2,1.1-7.2-1.6-9.6-.8-.7-2-1-3-.4,0,0-.2.1-.3.2-4.4-8.2-13.9-14-22.1-17.4-10.7-4.4-22.3-5.2-33.6-2.4-22.2,5.5-40,23.3-47.4,44.6-7.8,22.5-4.6,48.9,7.8,69.1,12.2,20,34.4,33.3,58.3,29.7,24.3-3.7,43-28.8,34.6-53.1,5.3,1.9,12,.2,15.6-4,5.1-6,4.2-13.9,3-21.1h0Z"/>
        <path class="cls-6" d="M606.6,110.3c0,0,0,0,0,0s0,0,0,0Z"/>
        <path class="cls-6" d="M656.3,226.8c-.7-3-1-6.4-2.6-8.9.8-1,.5-2.7-.7-3.3-3.9-2.1-8.9-.4-13.1,0-2.1.3-4.3.5-6.5.9.5-5.7.5-11.4.8-17.1.4-7.5.8-15.1,1.2-22.6.8-15.4,1.1-30.8,1.4-46.2,0-.8-.2-1.4-.5-1.9,6.2.3,12.7.3,18.7-.8,4.9-1,3.5-8.2-1.1-8.4-1,0-2,0-2.9,0,0-4.4.4-9.5-.7-13.7,5.1-.3,6.3-8.2,1-9.4-9.5-2.3-20.3-1.8-30-1.2-8.8.5-20.6.8-28.3,5.6-.9.5-1.4,1.5-1.5,2.6-1.3.3-2.4,1.4-2.5,3-.3,5.4,0,11.1.8,16.5.1.9.5,1.7,1,2.3-.5,1.2,0,3,1.5,3.2,4.9.9,10.9,1.7,16.3,1.3,0,.1,0,.3-.1.4-1.5,7.2-.8,14.8-1,22.2-.2,7.5-.5,14.9-1.1,22.4-.5,7.5-1.2,14.9-2.1,22.3-.9,7.4-2.7,15-3,22.5-5.7-1.2-11.5-.5-17.3-.2-2.6.1-5.1,2.2-5,5,.4,8.2,1.5,16.4,2,24.6.1,1.7,1.2,2.7,2.5,3.1,1.2.7,2.4.6,4.3.5,3.5,0,7.1-.2,10.7-.5,6.8-.5,13.5-1,20.3-1.5,6.7-.5,13.3-.9,20-1.6,5.5-.6,12.9,0,17.3-3.7.5-.5.8-1.1.8-1.8.2-.3.3-.6.4-.9.6-2.3,1.1-4.1.7-6.5-.4-2.7-.9-5.3-1.5-8h0ZM636.6,239.2c-6.7.6-13.3,1.5-20,2.3-6.8.8-13.6,1.6-20.3,2.4-2.2.3-5.7.3-8.7.9.2-5.8.7-11.6,1-17.4,5.4-.5,10.8-1.3,15.7-3.8.4-.2.7-.4.9-.8,1.7,0,3.4-.9,4-2.9,2.1-7,2.4-15.1,3.1-22.3.8-7.8,1.4-15.5,1.9-23.3.4-7.8.7-15.6.7-23.4,0-7.3.5-15.1-1.3-22.2-.1-.4-.3-.8-.7-1.1,2.3-1.2,2-5.5-.8-6-4.5-.8-9.9-.6-14.8,0,0,0,0-.1,0-.2-.2-5.2-.8-10.7-1.9-15.8,4.1.2,8.3-.6,12.4-1,4.5-.4,8.9-.8,13.4-1,7.8-.4,15.4.4,23.1.7-1.2,4.5-.8,9.9-.7,14.5-3.7.5-7.5,1.3-11,2-3,.6-2.9,4.2-.9,5.7-.8.5-1.5,1.4-1.6,2.7-1.5,15.1-3.1,30.1-4.1,45.2-.5,7.2-1,14.4-1.5,21.6-.5,7.8-1.7,15.8-1.4,23.6.2,5,8.1,6.8,9.4,1.8,3.1,0,6.4-.6,9.2-.9,1.8-.2,3.7-.2,5.5-.5-.2,2.8.4,5.8.6,8.4.3,3.4.6,6.3,1.6,9.2-4.3-.2-9.1.9-12.9,1.2h0Z"/>
        <path class="cls-6" d="M726.1,106.5c-24.8-16.3-56.3-2-71.2,20.7-15.2,23.2-20.7,56.8-9.4,82.6,5.9,13.4,16.7,24,30.7,28.8,7.1,2.5,17.2,3.9,25.4,1.7,9.2.1,18-5.1,24.1-12.4,9.9-11.7,15.4-27.7,19.7-42.2,8-26.9,6.7-62.2-19.3-79.2h0ZM738.8,170.4c-2,14.4-6.6,29.8-12.9,42.9-3.1,6.4-7.6,12.3-13.2,16.4-.4-.4-.9-.7-1.6-.6-4.6.5-8.8,2-13.3,2.7-5.3.8-10.8.2-15.8-1.4-9.8-3-18.4-9.3-23.8-18-12.6-20.3-10-47.8-.9-68.9,8.8-20.6,31.4-41.8,55.6-32.1,23.3,9.3,29.1,36.9,26.1,59.1h0Z"/>
        <path class="cls-6" d="M716.4,156.6c-2.7-9.9-10.8-24.9-23.3-17.5-6.1,3.6-8.9,11.3-10.9,17.7-1.4,4.6-2.1,9.1-2.3,13.8-5.1,10.7-5.7,23.8,3,33,9.1,9.5,24.7,8,31.1-3.7,6.8-12.5,6-30,2.4-43.3h0ZM694.7,202c-15.3-2.7-13.5-22.1-9.1-32.7.4-.9,0-1.7-.6-2.2.5-1.5,1-3.1,1.5-4.6,2-5.5,4.4-12.2,9-16.1,11.5-9.6,15.3,21.6,15.4,27.3.1,9.9-1.6,30.9-16.2,28.3Z"/>
        <path class="cls-6" d="M898.4,95.9c-3.9-3.7-9.6-4.1-14.7-4.9-12.3-1.9-6.3-1.2-17.5-1.8-5.7-.3-11.4-.3-17,.5-2.4.3-5,.7-7.3,1.6-1.8-.5-3.9-.5-5.8,0-4.5,1-7.9,4.3-9.9,8.4-2.1,4.4-1,9.4-.5,14.1.3,2.4.7,4.9.6,7.3,0,.4,0,.8-.2,1.2-2.5,1.8-2.9,6.6.3,8.5,5.2,3.2,11.2,2.4,16.2-.4.3,12.7,1.1,25.3,2.5,37.9.2,1.9.4,3.8.6,5.7-.1-.2-.2-.5-.4-.7-4.5-9.2-9.4-18.1-14.9-26.7-10.2-16.1-22.3-30.2-36.7-42.6-1.1-8.8-16.4-6.2-22.3-6.1-11.7.3-23.2.5-34.7,2.4-1.4-1-3.8-.6-4.3,1.4-1.5,6.2-1.7,12.9-1.7,19.3,0,1.8,2.5,1.9,3,.3,1.7-5.8,3.3-11.7,3.8-17.8,8,1.2,15.9,1.5,24.2,1.6,4.6,0,9.3.1,13.9.2,1.8,0,11.4-1.2,12.4,1.1.6,1.4,1.9,2.1,3.1,2,11.4,13.9,22.2,28.6,31.7,43.8,5.1,8.2,9.8,16.6,14,25.3,4,8.2,6.3,19,12.9,25.5,2.1,2,4.9.1,5.2-2.3.2-2.2,0-4.4-.5-6.7,0-2.4,0-4.9,0-7.3,0-6.2,0-12.5-.2-18.7-.2-12.9-1.1-25.6-2.4-38.4-.3-3.3-3.3-4.7-5.7-4.2-.6-1.1-2-1.8-3.2-1.5-2.7.6-5.2.3-7.7-.4.9-3.5.7-7.7.5-10.8-.2-3.2-.8-7.1.1-10.3,1.3-4.3,5.1-2.7,8.6-2.8.3,0,.6,0,.9-.2,1.4,0,2.8,0,4.1.2,5.4.3,10.7.2,16.1.5,5.2.3,10.3.9,15.4,1.8,2.5.4,5.1,1.2,7.7,1.6-.7,3.3-.5,7-.6,10.3,0,1.1-.2,2.4-.3,3.7-.1,0-.2,0-.3,0-1.6.2-3.1.3-4.7.5-.8.1-1.6.3-2.3.4-.6.1-.9.2-1.1.2-2.7-.7-5.3,2.7-4.2,5.2-.3.3-.5.8-.6,1.3-3.2,36.2-4.5,72.5-5.3,108.8-1.8.3-3.5.6-5.1.8-4.9.5-10.8.3-15.6,2.1-10.1-14.1-20.3-28.2-30.5-42.2-9.6-13.1-18.7-27.6-29.8-39.6,0-.8,0-1.6,0-2.4,0-6.1-8.8-5.6-9.3.3-1,12.3-1.1,24.8-1.5,37.1-.2,5.9-.3,11.7-.4,17.6,0,5.2-.5,10,1.5,14.6-.4.4-.7.8-1,1.4-.4.9-.5,1.9,0,2.8,3.4,5.1,12.1,2.7,18.3,1.1,0,6.2-1.3,12.5-8.5,14.1-7.7,1.7-15.9.4-23.7.7-5.9.3-17,2.4-20.6-4.1-4.3-7.9,12.2-9.4,16.2-9.6,2.3-.1,2.5-3.2.4-3.9-.7-.2-1.3-.4-2-.7,0-.1.2-.2.2-.3,1.7-3.3,1.2-7,.9-10.6-.3-4.5-.7-9-1-13.6-.6-8.4-1.1-16.8-1.3-25.2s-.2-16.9.1-25.3c.2-4.5.4-9.1.6-13.6,0-1.9.3-3.6.2-5.1,1.4-.1,2.7-.6,3.8-1.8.6-.6,1-1.8.6-2.7-1.9-4.4-6-4-10.2-4.6-4.8-.7-9.9-2.2-14.7-1.8-2.9.2-4.5,4.6-1.4,6,4.2,1.9,9.2,2.5,13.7,3.4-.5,1.4-.5,3-.7,4.9-.3,4.5-.5,9.1-.6,13.6-.2,9.1-.2,18.1.1,27.2.3,9.1.8,18.1,1.8,27.1.7,6.1.5,15.8,4.2,21.2-3.9-1.1-7.8-1.4-12,.3-4.2,1.8-8,5.5-9.1,10.1-2.9,11.6,9.3,18.1,19,18.3,6.5.1,13.1-1.1,19.4-2.3,6.2-1.2,12.7-.8,18.9-2.4,10.8-2.9,12.2-13.4,11.1-22.9-.2-1.7-1.3-2.7-3-2.8-3.6-.2-9.7-1.6-14.6-1.1,1.2-3.6,1.3-7.5,1.5-11.5.4-6.2.8-12.4,1.1-18.6.4-7.7.9-15.4,1.2-23.1,7.2,11.6,15.8,22.5,23.4,33.5,10.6,15.3,21.4,30.4,32.1,45.6,2.8,3.9,8.4,1.6,8.8-2,4,.2,8.3-.4,12.2-.7,1.5,0,3.1,0,4.8,0,1.2,4.6,9,4.1,9.4-1.3,1-.5,1.9-1.1,2.6-1.9,1-1.2,1.2-3.2-.1-4.3-.7-.6-1.5-1-2.3-1.3.8-35.9,1.3-71.6-.2-107.5,2,.7,4.4.4,6.8.2,1.3-.1,2.7-.1,4.1-.2.2.2.4.4.6.6.7.6,1.9.9,2.8.3,1.5-1.1,2.2-2.5,2.6-4,0,0,0,0,0,0,.4-.8.6-2.1.2-3,0-1.9-.3-3.9-.3-5.8,0-3.4.3-7.3-.4-10.8.5,0,1.1-.2,1.6-.3,3.3-.9,4.2-5.3,1.8-7.6h0Z"/>
      </g>
      <g id="Layer_5">
        <path d="M344.9,36.2c-.6-6.7-6.5-12.8-11.3-17-5.1-4.5-10.9-8-17.2-10.6-13.3-5.5-28.5-6.3-42-1.2-13,4.9-24.3,14-31.5,26-3.7,6.2-6.1,13.2-6.7,20.4-.2,3.5,0,7.1,1,10.4,1.2,3.7,3.1,5.6,5.4,8.6,1.7,2.2,4.9.4,3.7-2.2-2.5-5.1-1.6-13.3-.3-18.7,1.3-5.5,3.8-10.5,6.9-15.2,6.3-9.4,16.1-16.6,26.9-20,11-3.4,22.5-2.9,33.2,1.4,5.3,2.1,10.4,5.2,14.7,9,4.2,3.7,7.4,9,12,12,2.1,1.3,5.4-.4,5.2-3h0Z"/>
        <path d="M599.3,8.8c-24.6-10.3-55.6,2.5-60,30.2-.5,3.2,4,4.6,4.9,1.3,6.3-22.2,32.3-33.1,52.7-23,10.1,5,18.2,14,22.1,24.5,4.3,11.4,3.7,23.5,2,35.4-.5,3.8,4.9,7.2,6.9,2.9,12.4-26.8-1.9-60.1-28.7-71.3h0Z"/>
      </g>
      <path class="cls-5" d="M906.7,227.6c-2,0-3.5,1.9-3.3,3.8-.1.1-.2.2-.3.4-.5.7-.7,1.5-.6,2.3-.3,1.1,0,2.4.7,3.3,1.7,2,4.3,1.6,5.8,0,.6-.4,1-1,1.2-1.7.9-.2,1.6-.9,1.9-1.8.4-1.4-.5-2.5-1.7-3-.2-1.8-1.7-3.4-3.6-3.3Z"/>
      <path class="cls-5" d="M897.5,175.6c-5.8,1.1-10.2,6.6-8.7,12.6,1.3,5.5,7.6,8.4,12.6,5.9.2,0,.3,0,.5,0,3.2.1,6.6-.1,9-2.5,2.1-2.1,2.2-5.2,1.2-7.8-2.2-5.6-8.6-9.3-14.5-8.3ZM901.8,187.6c-.7,0-1.5,0-2,0-.5,0-.9,0-1.3.3-.6-.4-1.2-.8-1.7-1.3,0,0,0,0,0,0,.7-1.3,1.4-2.6,2.1-4,1.3,0,2.6.1,3.8.4,0,0,0,.2.1.3.1.3.2.6.4.8,0,.9-.3,1.8-.9,2.6-.3.3-.4.6-.5,1Z"/>
      <path class="cls-5" d="M907.5,132.4c-3.1.6-6.2,1.2-9.3,1.8-.2,0-.4,0-.6.1-3.3,0-6.5.8-9.5,2.4-1.6.9-1.5,2.7-.5,3.7-.2.9-.1,1.8.2,2.6,0,1.1.8,2.2,2.3,2.4,2,.3,4.8.6,6,2.4,1.3,1.8-.2,3.9-.7,5.7,0,.2,0,.3,0,.5-1.3.2-2.5.6-3.7,1.2-.4.2-.8.5-1.2.8-1.1.2-2,.6-3,1.3-.7.5-.9,1.2-.8,1.9-1.4,2.3.7,4.8,3.3,5.3,0,0,0,0,0,0,.4.4.9.7,1.5,1,2.3,1.1,5.1,1.4,7.6,1.9,1.2.2,2.4.5,3.7.7,1.2.7,2.4,1.5,3.6,2.3,1.3.9,2.6,1.7,4.2,1.6,3.2-.2,4.8-3.5,3-6-1-1.4-2.7-1.9-4.4-2.5-2.1-.7-4.3-1.5-6.5-2.2h-.1c0-.4-.2-.8-.4-1,.2-.2.3-.4.5-.6.5-.6.5-1.4.2-2.1,2.1-.5,4.1-1.3,5.6-2.8,3.6-3.6,2.5-8.7-1.9-11.1-1.4-.8-3-1.4-4.6-2,.5-.9.9-1.8,1.9-2.2.5-.2.8-.6,1-1,.8,0,1.7,0,2.5,0,1.1,0,2-.7,2.4-1.6.2-.5.4-.9.6-1.4.7-1.7-1.2-3.3-2.9-3Z"/>
      <path class="cls-5" d="M903.7,207c-.3.5-.7.9-1.2,1.3-.2,0-.4,0-.6,0h-5.1c-.3,0-.6,0-.8,0-.7-1.4-1.2-3-1.4-3.7-.5-2-2.7-2.1-3.9-1.1-.9.1-1.8.8-2.1,1.8-.9,3.9,1.3,7.1,3.7,10,2.3,2.8,5.7,4.9,9.4,3.5.8-.3,1.3-.9,1.5-1.6,1.4-.3,2.7-.8,3.9-1.5.3-.1.6-.3.9-.6,0,0,0,0,.1-.1,1-.7,1.9-1.6,2.6-2.7.4-.6.5-1.3.3-1.8.7-1.2,1.2-2.4,1.4-3.5.3-2.3-1.4-4.2-3.8-4.2-2.9,0-3.7,2.3-5,4.4Z"/>
      <path d="M899.7,235.5c.4,2.4,1.9,4.6,4.2,5.5.7.3,1.4.4,2.1.4.4.3.8.5,1.2.6,2.4.7,5-1,6.2-3.1,2.6-4.7.5-12.5-5.2-13.6-5.6-1.2-9.3,5.3-8.4,10.1ZM906.9,229.8c2.2.3,2.8,3.3,2.7,5.1-.2,2.8-1.6,2.7-3.6,1.9-.5-.2-.9.1-1.2.5,0,0,0,0,0,0-.7-.6-1.2-1.4-1.2-2.7,0-1.8,1.1-5.1,3.4-4.8Z"/>
      <path d="M905.3,201.7c-.2-.2-.3-.3-.6-.5-.5-.2-1-.2-1.4.2-.9.8-.5,1.8-.7,2.8-.2,1.3-.9,2.4-2.1,3-2.4,1.1-4-.8-3.7-3.1,0-.4-.2-.7-.5-.9.1-.4,0-.9-.5-1.2-1.5-.8-3.2-.4-4.8-.2-.6,0-1.2.1-1.8.2,0,0,0,0,0,0,0-1.4-2.3-2.3-2.9-.8-.3.6-.5,1.3-.6,1.9,0,.1-.1.3,0,.5-.6,4,.8,8.5,3.1,11.6,2.9,4,7.6,6.3,12.6,6.2,4.9,0,9.4-2.4,11.9-6.6,2.1-3.6,2.8-8.7.2-12.2.1-.8-.3-1.7-1.3-1.7-1.3,0-2.6.2-4,.4-1,.1-1.9.1-2.8.5ZM909.6,212.6c-1.9,3-5.2,4.7-8.7,4.7-3.7,0-7.2-1.7-9.4-4.7-1.9-2.7-2.2-5.3-2.3-8.2.6,0,1.2,0,1.8,0,1.1,0,2.3.1,3.5,0-.4,1.3-.1,2.8.6,4,1.1,1.7,3.3,2.3,5.1,2,2.1-.3,3.9-1.7,4.8-3.7.3-.7.7-1.8.8-2.9.9.1,1.9,0,2.9-.1.9,0,1.8-.1,2.7-.2,0,3.2,0,6.2-1.8,9Z"/>
      <path d="M887.1,190.7c2.7,6.3,8.8,7.4,14.9,6.2,3-.6,6.3-1.3,8.7-3.3.4-.3.8-.7,1.1-1.1.9-.5,1.8-1.4,2.1-2,1.2-2.2,1.1-5,.5-7.3-1.4-5-5.7-8.8-10.6-10.2-10.1-2.8-21.1,7.4-16.7,17.7ZM908.1,180.4c1.7,2,2.7,4.6,2.2,7.3-.2,1-1.1,2.6-1,3.8-1.2.9-2.6,1.4-4,1.8-3.2.8-7.2,1.9-10.5.8-6.6-2.2-6.1-11-1.8-15.1,4.5-4.2,11.2-3.2,15.1,1.4Z"/>
      <path d="M899,181.4c-2.3.4-4.5,2.7-3.3,5,.9,1.9,3.3,2.4,5.1,1.5,1.5.6,3.2-.8,3.3-2.6.2-2.7-2.6-4.4-5.1-4ZM901.4,184.8c.2.3.3.7.2,1.1-.9-.1-1.9.1-2.8-.3-.8-.4-.7-1,.1-1.4.8-.4,1.9,0,2.4.7Z"/>
      <path d="M909.1,129.8c-1.8-.5-3.7.1-5.4.4-2.1.4-4.1.9-6.1,1.4-3.8,1-8,2.2-11.4,4.1-.4.2-.6.5-.7.9-.6.3-1,.7-1,1.4,0,.9,0,5.1,1,7.1-.1.7.2,1.4,1.1,1.7,2.2.8,4.6,1.9,7,2.6,0,.9.1,1.9.3,2.9-1.8.8-3.8,1.6-5.5,2.6-1.1-.7-3.3-.3-3.5,1.3-.2,2-.2,4,.2,6-.8.8-.7,2.4.8,3,3.5,1.4,7.2,2.6,10.9,3.7.8.2,1.7.5,2.7.8,1.8.9,4,1.5,6.1,1.8,1.1.3,2.3.4,3.5.6,1.6.2,3.4.8,4.9,0,.5-.3.7-.8.5-1.3.4-1.9,0-3.9,0-5.9,0-.6-.4-1-.8-1.3,0-.3-.2-.5-.4-.7-2.2-1.7-5.4-2.9-8.1-3.9,2.1-1,4.2-2.3,6.2-3.4.8-.4,1-1.2.8-1.8.1-.1.2-.3.2-.4.7-2.3.3-4.9.3-7.2,0-1-.9-1.6-1.9-1.7-2.2-1.1-4.4-2.2-6.4-3.5.1,0,.2,0,.3,0,2-.2,5-.2,6.6-1.4,1.4-1,1.5-2.6,1.4-4.1-.2-1.8,0-4.3-1.5-5.7-.6-.5-1.7-.6-2.2,0ZM908.8,134.4c.1.6.4,1.4.4,2-.1,1.2-.9,1.2-2.1,1.4-.7.1-8.1,1-6.9,2.6,0,0,0,0,.1.1-.3.5-.3,1.1.3,1.7,2.3,1.9,5.2,3.7,8.3,4.6,0,2,0,4.1.5,6-2.3,1.4-4.9,2.8-6.9,4.4-.7.5-.6,1.2-.2,1.7-.8.7-1,2.1.2,2.7,2.5,1.2,5.5,2.6,8.3,3.3,0,0,0,.2,0,.3.2,1.3.3,2.7.6,4-.4,0-.9-.1-1.3-.2-1.1-.2-2.2-.5-3.4-.6-1-.5-2.1-.8-3.2-1.1-1.8-.5-3.7-1-5.5-1.6-3.2-.9-6.3-2-9.3-3.2,0-.4,0-.8,0-1.2,0-1.3.1-2.7.3-4,2.4-.5,4.8-1.6,7.1-2.4.8-.3,1.1-1,.9-1.6.3-1.2.3-2.5.2-3.8.4-.5.3-1.3-.3-1.7,0,0,0,0-.1,0-.1-.2-.3-.3-.6-.4-2.2-1.3-5.1-2.2-7.6-3.1,0-.4,0-.9,0-1.3,0-1.8.1-3.6-.1-5.4,3.3-1,6.5-2.3,9.9-3.1,1.8-.4,3.6-.8,5.4-1.2,1.5-.3,3.3-.3,4.8-.8,0,.6.3,1.2.4,1.8Z"/>
    </g>
  </g>
</svg>